<?xml version="1.0" encoding="utf-8"?>
<!-- Generator: Adobe Illustrator 23.0.5, SVG Export Plug-In . SVG Version: 6.00 Build 0)  -->
<svg version="1.1" id="Capa_1" xmlns="http://www.w3.org/2000/svg" xmlns:xlink="http://www.w3.org/1999/xlink" x="0px" y="0px"
	 viewBox="0 0 1920 1080" style="enable-background:new 0 0 1920 1080;" xml:space="preserve">
<style type="text/css">
	.st0{fill:url(#SVGID_1_);}
	.st1{fill:#F2F5FA;}
	.st2{opacity:0.8;fill:url(#SVGID_2_);}
	.st3{opacity:0.8;fill:url(#SVGID_3_);}
	.st4{opacity:0.8;fill:url(#SVGID_4_);}
	.st5{opacity:0.8;fill:url(#SVGID_5_);}
	.st6{opacity:0.8;fill:url(#SVGID_6_);}
</style>
<image style="overflow:visible;" width="1920" height="1080" xlink:href="5E81157B.jpg"  transform="matrix(1 0 0 1 -7232 -7652)">
</image>
<linearGradient id="SVGID_1_" gradientUnits="userSpaceOnUse" x1="981.1803" y1="1316.2201" x2="946.2983" y2="26.9282">
	<stop  offset="0" style="stop-color:#20B7DB"/>
	<stop  offset="1" style="stop-color:#0A5691"/>
</linearGradient>
<path class="st0" d="M0-0.2v1067c0,0-10.6,10.1,236.8-88.8c0,0,193.2-74.8,503-42c0,0,730.4,156.4,942,94.7c0,0,178-16.4,238.3-47
	V-0.2C1920-0.2,0-0.2,0-0.2z"/>
<path class="st1" d="M0,1067.2v11c0,0,124.7-51,177.8-72.7c0,0,168.2-64.3,322-70.1c0,0,99.3-12.5,325.3,19.4
	c0,0,129.7,21.5,275.2,52.5c0,0,164.8,39.4,320.2,41.4c0,0,184.2,3.8,263.3-17.9c0,0-145.5,13.1-301.4,0.3
	c0,0-173.8-17.6-242.7-29.5c0,0-306.8-54.6-311.6-54.9c0,0-224.8-45.4-426.9-13.8c0,0-100.2,15.5-191.4,55.2
	C209.7,988.2,17.2,1065.1,0,1067.2z"/>
<linearGradient id="SVGID_2_" gradientUnits="userSpaceOnUse" x1="829.6429" y1="190.6244" x2="1324.4783" y2="190.6244">
	<stop  offset="0" style="stop-color:#0A5691;stop-opacity:0"/>
	<stop  offset="1" style="stop-color:#FFFFFF;stop-opacity:0.1"/>
</linearGradient>
<polygon class="st2" points="1139.3,0 829.6,301 959.8,381.5 1324.5,-0.2 "/>
<linearGradient id="SVGID_3_" gradientUnits="userSpaceOnUse" x1="1625.0983" y1="413.7729" x2="1781.464" y2="413.7729">
	<stop  offset="0" style="stop-color:#2467AB"/>
	<stop  offset="1" style="stop-color:#0E689D;stop-opacity:0.2"/>
</linearGradient>
<path class="st3" d="M1780.5,356.5L1780.5,356.5c1.6,2.2,1.2,5.2-1,6.8l-146.6,108.8c-2.2,1.6-5.2,1.2-6.8-1l0,0
	c-1.6-2.2-1.2-5.2,1-6.8l146.6-108.8C1775.8,353.9,1778.9,354.3,1780.5,356.5z"/>
<linearGradient id="SVGID_4_" gradientUnits="userSpaceOnUse" x1="1625.0983" y1="873.2315" x2="1781.464" y2="873.2315">
	<stop  offset="0" style="stop-color:#19BADB"/>
	<stop  offset="0.8568" style="stop-color:#1BA8CF;stop-opacity:0"/>
</linearGradient>
<path class="st4" d="M1780.5,815.9L1780.5,815.9c1.6,2.2,1.2,5.2-1,6.8l-146.6,108.8c-2.2,1.6-5.2,1.2-6.8-1l0,0
	c-1.6-2.2-1.2-5.2,1-6.8l146.6-108.8C1775.8,813.3,1778.9,813.8,1780.5,815.9z"/>
<linearGradient id="SVGID_5_" gradientUnits="userSpaceOnUse" x1="151.7799" y1="320.2631" x2="308.1457" y2="320.2631">
	<stop  offset="0" style="stop-color:#0F8DB8"/>
	<stop  offset="1" style="stop-color:#106FA2;stop-opacity:0"/>
</linearGradient>
<path class="st5" d="M307.2,263L307.2,263c1.6,2.2,1.2,5.2-1,6.8L159.6,378.6c-2.2,1.6-5.2,1.2-6.8-1l0,0c-1.6-2.2-1.2-5.2,1-6.8
	L300.4,262C302.5,260.4,305.6,260.8,307.2,263z"/>
<linearGradient id="SVGID_6_" gradientUnits="userSpaceOnUse" x1="481.1244" y1="887.0875" x2="636.6243" y2="887.0875" gradientTransform="matrix(1.3489 0.4704 0.4704 1.6341 -862.0701 -1162.1021)">
	<stop  offset="0" style="stop-color:#2197C1;stop-opacity:0.8"/>
	<stop  offset="1" style="stop-color:#1688B6;stop-opacity:0"/>
</linearGradient>
<path class="st6" d="M386.3,493.1L386.3,493.1c3.2,4.3,2.3,10.4-2,13.5l-138.9,103c-4.3,3.2-10.4,2.3-13.5-2l0,0
	c-3.2-4.3-2.3-10.4,2-13.5l138.9-103C377.1,487.9,383.1,488.8,386.3,493.1z"/>
</svg>
