<?xml version="1.0" encoding="utf-8"?>
<!-- Generator: Adobe Illustrator 23.0.5, SVG Export Plug-In . SVG Version: 6.00 Build 0)  -->
<svg version="1.1" id="Capa_1" xmlns="http://www.w3.org/2000/svg" xmlns:xlink="http://www.w3.org/1999/xlink" x="0px" y="0px"
	 viewBox="0 0 1920 1080" style="enable-background:new 0 0 1920 1080;" xml:space="preserve">
<style type="text/css">
	.st0{fill:url(#SVGID_1_);}
	.st1{fill:url(#SVGID_2_);}
	.st2{opacity:0.41;fill:#564DD9;}
	.st3{opacity:0.2;fill:url(#SVGID_3_);}
	.st4{opacity:0.2;fill:url(#SVGID_4_);}
	.st5{opacity:0.3;fill:url(#SVGID_5_);}
</style>
<g>
	<g>
		<linearGradient id="SVGID_1_" gradientUnits="userSpaceOnUse" x1="896.07" y1="-179.4759" x2="1015.921" y2="893.816">
			<stop  offset="1.145919e-03" style="stop-color:#1F51A2"/>
			<stop  offset="0.3006" style="stop-color:#374FC2"/>
			<stop  offset="0.6704" style="stop-color:#5350E2"/>
			<stop  offset="1" style="stop-color:#595AEF"/>
		</linearGradient>
		<path class="st0" d="M0.1,0.1c638.5,0,1277,0,1915.5-0.1c3.7,0,4.6,0.8,4.6,4.6c-0.1,157.2-0.1,314.3-0.1,471.5
			c-1.8,1.1-3.8,2.1-5.5,3.4c-58.2,43-116.5,85.7-175.6,127.4c-111.4,78.6-225,153.9-344.2,220.3c-70.7,39.3-142.9,75.4-218,105.6
			c-104.9,42.1-212.4,73.4-326.2,78.8c-35,1.7-69.9,0.5-104.7-3.7c-37.7-4.5-74.2-14.1-110.3-25.4
			C521.1,946.8,406.5,912,291.9,877.2c-94.7-28.7-189.6-56.8-283.8-86.8c-8.2-2.6-8.2-2.6-8.2-11.4c0-257.1,0-514.3-0.1-771.4
			C-0.2,5.1,0,2.6,0.1,0.1z"/>
	</g>
</g>
<radialGradient id="SVGID_2_" cx="2196.4202" cy="656.2357" r="1501.2383" gradientUnits="userSpaceOnUse">
	<stop  offset="3.170359e-02" style="stop-color:#2776D4"/>
	<stop  offset="0.4442" style="stop-color:#3466BC"/>
	<stop  offset="1" style="stop-color:#3F59C7"/>
</radialGradient>
<path class="st1" d="M1920,421.5V0.1h-722.1h-58.5H658.5c0,0,41.6,171.1-24.1,293.1c0,0-33.5,76.5-178.4,185.1
	c0,0-178.4,127.5-10.7,254.9c0,0,357.4,246.8,953.1,91.2c0,0,174-98.6,211.5-129.5l310.4-218.8v-54.6L1920,421.5z"/>
<image style="overflow:visible;" width="1920" height="1080" xlink:href="D29DBE08.jpg"  transform="matrix(1 0 0 1 -7232 -7652)">
</image>
<path class="st2" d="M-0.2,141.5c0,0,41.9,83.9,67.3,122.1c0,0,81.2,112.7,89.9,210c0,0,29.5,152.9-118.1,326l-39.2-12.1V141.5z"/>
<linearGradient id="SVGID_3_" gradientUnits="userSpaceOnUse" x1="1176.094" y1="94.3944" x2="1920.1953" y2="94.3944">
	<stop  offset="1.948033e-02" style="stop-color:#008BB7"/>
	<stop  offset="0.5053" style="stop-color:#347DA9"/>
	<stop  offset="1" style="stop-color:#0E67A3"/>
</linearGradient>
<path class="st3" d="M1189.8,0c0,0-48.5,126.8,37,183c0,0,64.1,32,181.2-53.9c0,0,152.3-153.8,512.2,17V0L1189.8,0z"/>
<linearGradient id="SVGID_4_" gradientUnits="userSpaceOnUse" x1="1775.9214" y1="148.0493" x2="1763.4449" y2="520.5607">
	<stop  offset="3.056133e-03" style="stop-color:#1E8FBF"/>
	<stop  offset="0.563" style="stop-color:#4BB4C8"/>
	<stop  offset="1" style="stop-color:#1CC9E4"/>
</linearGradient>
<path class="st4" d="M1781.9,1.4c0,0-97.1,31-83,168.8c0,0,2.5,62.6,36.9,112.3c0,0,72.3,88.5-1.6,185.4c0,0-45.6,54-79.9,80
	c0,0-70.7,37.1-44.5,147.1c0,0,85.1-54,310.4-218.8V0L1781.9,1.4z"/>
<linearGradient id="SVGID_5_" gradientUnits="userSpaceOnUse" x1="1686.7988" y1="-60.5414" x2="2208.24" y2="332.1045">
	<stop  offset="1.948033e-02" style="stop-color:#008BB7"/>
	<stop  offset="0.5053" style="stop-color:#347DA9"/>
	<stop  offset="1" style="stop-color:#0E67A3"/>
</linearGradient>
<path class="st5" d="M1709.8,74.9c0,0,143.8,26.8,210.4,76l4-150.9l-142.3,1.3C1781.9,1.4,1715.5,32.9,1709.8,74.9z"/>
</svg>
