<?xml version="1.0" encoding="utf-8"?>
<!-- Generator: Adobe Illustrator 23.0.5, SVG Export Plug-In . SVG Version: 6.00 Build 0)  -->
<svg version="1.1" id="revisi" xmlns="http://www.w3.org/2000/svg" xmlns:xlink="http://www.w3.org/1999/xlink" x="0px" y="0px"
	 viewBox="0 0 2844.4 1500" style="enable-background:new 0 0 2844.4 1500;" xml:space="preserve">
<style type="text/css">
	.st0{fill:#EBF8FF;}
	.st1{fill:#E4DDEE;}
	.st2{fill:#D9F0FF;}
	.st3{opacity:0.1;fill:#231F20;}
	.st4{fill:#EFEFEF;}
	.st5{fill:#FFFFFF;}
	.st6{fill:#F9EC31;}
	.st7{fill:#F9A61A;}
	.st8{fill:#A69E98;}
	.st9{fill:#F1F1F2;}
	.st10{fill:#FDBF14;}
	.st11{fill:#D0D2D3;}
	.st12{opacity:0.2;fill:#231F20;}
	.st13{fill:#FFD03C;}
	.st14{fill:#F3F4F5;}
	.st15{fill:#4F504F;}
	.st16{fill:#6AB3FC;}
	.st17{fill:#0071F7;}
	.st18{fill:#0072FA;}
	.st19{fill:#0049B6;}
	.st20{fill:#6BB3FC;}
	.st21{fill:#FFC04B;}
	.st22{fill:#0072F9;}
	.st23{fill:#1B2E59;}
	.st24{fill:#FDE0C4;}
	.st25{fill:#558BC9;}
	.st26{opacity:0.1;}
	.st27{fill:#F1E1D0;}
	.st28{fill:#4F371B;}
	.st29{fill:#C33C3C;}
	.st30{fill:#121F3C;}
	.st31{fill:#5F4937;}
	.st32{fill:#4D4D6B;}
	.st33{fill:#BFBEBE;}
	.st34{fill:#404041;}
	.st35{fill:#F18671;}
	.st36{fill:#C1B49A;}
	.st37{fill:#58595B;}
	.st38{fill:#A79C90;}
	.st39{fill:#009FD7;}
	.st40{fill:#D4EBE7;}
	.st41{fill:#F5A25C;}
	.st42{fill:#008DC9;}
	.st43{fill:#ED6776;}
	.st44{fill:#D5CEC6;}
	.st45{fill:#A87D50;}
	.st46{fill:#1E2859;}
	.st47{fill:#231F20;}
	.st48{fill:#E180B4;}
	.st49{fill:#1B144B;}
	.st50{opacity:0.2;fill:#1B144B;}
</style>
<g>
	<g>
		<path class="st0" d="M263.2,900.7c0,18.5,15,33.5,33.5,33.5h747.3c18.5,0,33.5-15,33.5-33.5l0,0c0-18.5-15-33.5-33.5-33.5H296.7
			C278.2,867.2,263.2,882.2,263.2,900.7L263.2,900.7z"/>
		<path class="st0" d="M1718.7,992.5c0,18.5,15,33.5,33.5,33.5h747.3c18.5,0,33.5-15,33.5-33.5l0,0c0-18.5-15-33.5-33.5-33.5h-747.3
			C1733.7,959,1718.7,974,1718.7,992.5L1718.7,992.5z"/>
		<path class="st0" d="M717.6,806.4c0,18.5,15,33.5,33.5,33.5h561.4c18.5,0,33.5-15,33.5-33.5l0,0c0-18.5-15-33.5-33.5-33.5H751.1
			C732.6,772.9,717.6,787.9,717.6,806.4L717.6,806.4z"/>
		<path class="st0" d="M450.3,806.4c0,18.5,15,33.5,33.5,33.5h90.7c18.5,0,33.5-15,33.5-33.5l0,0c0-18.5-15-33.5-33.5-33.5h-90.7
			C465.3,772.9,450.3,787.9,450.3,806.4L450.3,806.4z"/>
		<path class="st0" d="M515,1182.5c0,18.5,15,33.5,33.5,33.5h90.7c18.5,0,33.5-15,33.5-33.5l0,0c0-18.5-15-33.5-33.5-33.5h-90.7
			C530,1148.9,515,1164,515,1182.5L515,1182.5z"/>
		<path class="st0" d="M2355.9,1082.3c0,18.5-15,33.5-33.5,33.5h-747.3c-18.5,0-33.5-15-33.5-33.5l0,0c0-18.5,15-33.5,33.5-33.5
			h747.3C2340.9,1048.7,2355.9,1063.7,2355.9,1082.3L2355.9,1082.3z"/>
		<path class="st0" d="M2581.3,1087.4c0,18.5-15,33.5-33.5,33.5h-90.7c-18.5,0-33.5-15-33.5-33.5l0,0c0-18.5,15-33.5,33.5-33.5h90.7
			C2566.3,1053.9,2581.3,1068.9,2581.3,1087.4L2581.3,1087.4z"/>
		<path class="st0" d="M596.3,923.7c0,31.2-25.3,56.5-56.5,56.5c-31.2,0-56.5-25.3-56.5-56.5c0-31.2,25.3-56.5,56.5-56.5
			C571,867.2,596.3,892.5,596.3,923.7z"/>
		<path class="st0" d="M644,768c0,42-34,76-76,76c-42,0-76-34-76-76s34-76,76-76C609.9,692,644,726,644,768z"/>
		<path class="st1" d="M1787.9,628.4c0,18.5-15,33.5-33.5,33.5h-90.7c-18.5,0-33.5-15-33.5-33.5l0,0c0-18.5,15-33.5,33.5-33.5h90.7
			C1772.9,594.9,1787.9,609.9,1787.9,628.4L1787.9,628.4z"/>
		<path class="st0" d="M1594.3,590.1c0,42,34,76,76,76c42,0,76-34,76-76c0-42-34-76-76-76C1628.3,514.1,1594.3,548.1,1594.3,590.1z"
			/>
		<path class="st0" d="M2465.4,969.5c0,31.2-25.3,56.5-56.5,56.5c-31.2,0-56.5-25.3-56.5-56.5c0-31.2,25.3-56.5,56.5-56.5
			C2440.1,913,2465.4,938.3,2465.4,969.5z"/>
		
			<ellipse transform="matrix(1.110902e-02 -0.9999 0.9999 1.110902e-02 1329.5848 3208.4478)" class="st0" cx="2286.9" cy="932" rx="93.9" ry="93.9"/>
		<path class="st0" d="M2227.1,873.4c0,80-64.8,144.8-144.8,144.8c-80,0-144.8-64.8-144.8-144.8s64.8-144.8,144.8-144.8
			C2162.3,728.7,2227.1,793.5,2227.1,873.4z"/>
		
			<ellipse transform="matrix(0.9606 -0.278 0.278 0.9606 -169.4525 537.6451)" class="st2" cx="1811.4" cy="866.4" rx="171.8" ry="171.8"/>
		<path class="st0" d="M2251.7,1142.6c0,51.8-42,93.9-93.9,93.9c-51.8,0-93.9-42-93.9-93.9c0-51.8,42-93.9,93.9-93.9
			C2209.6,1048.7,2251.7,1090.8,2251.7,1142.6z"/>
		
			<ellipse transform="matrix(0.9996 -2.937398e-02 2.937398e-02 0.9996 -28.5086 19.6627)" class="st0" cx="655" cy="980.2" rx="93.9" ry="93.9"/>
		
			<ellipse transform="matrix(6.848866e-03 -1 1 6.848866e-03 -207.5845 1946.5122)" class="st0" cx="876.2" cy="1077.8" rx="171.4" ry="171.4"/>
		
			<ellipse transform="matrix(0.9932 -0.116 0.116 0.9932 -74.0133 112.4436)" class="st0" cx="928.9" cy="692" rx="130.1" ry="130.1"/>
		
			<ellipse transform="matrix(9.131231e-02 -0.9958 0.9958 9.131231e-02 391.9426 1732.8782)" class="st0" cx="1145.5" cy="651.7" rx="170.5" ry="170.5"/>
		<path class="st0" d="M866.2,761.3c0,33.6-27.2,60.8-60.8,60.8c-33.6,0-60.8-27.2-60.8-60.8c0-33.6,27.2-60.8,60.8-60.8
			C839,700.6,866.2,727.8,866.2,761.3z"/>
		<path class="st1" d="M1342,761.3c0,33.6-27.2,60.8-60.8,60.8c-33.6,0-60.8-27.2-60.8-60.8c0-33.6,27.2-60.8,60.8-60.8
			C1314.8,700.6,1342,727.8,1342,761.3z"/>
		<path class="st1" d="M1103.4,980.2c0,47.4-38.4,85.8-85.8,85.8c-47.4,0-85.8-38.4-85.8-85.8c0-47.4,38.4-85.8,85.8-85.8
			C1065,894.3,1103.4,932.8,1103.4,980.2z"/>
		<polygon class="st0" points="760,895.4 681,923.7 786.1,980.2 		"/>
		<g>
			<defs>
				<rect id="SVGID_1_" x="818.9" y="235.6" width="1263.5" height="1050.1"/>
			</defs>
			<clipPath id="SVGID_2_">
				<use xlink:href="#SVGID_1_"  style="overflow:visible;"/>
			</clipPath>
		</g>
	</g>
	<path class="st3" d="M698.9,1326.9c0,15.9,13.5,28.7,30.1,28.7h1433.4c16.6,0,30.1-12.8,30.1-28.7l0,0c0-15.8-13.5-28.7-30.1-28.7
		H729C712.3,1298.2,698.9,1311.1,698.9,1326.9L698.9,1326.9z"/>
	<g>
		<g>
			<path class="st4" d="M1666.6,426.7l-5.6-7.5l-5.9,4.4l5.6,7.5l-5.4,4l-5.6-7.5l-5.9,4.4l5.6,7.5l-5.4,4l-5.6-7.5l-5.9,4.4
				l5.6,7.5l-5.4,4l-5.6-7.5l-5.9,4.4l5.6,7.5l-5.4,4l-5.6-7.5l-5.9,4.4l5.6,7.5l-5.4,4l-5.6-7.5l-5.9,4.4l5.6,7.5l-5.4,4l69.3,93.2
				l73.3-54.5l-69.3-93.2L1666.6,426.7z M1720.4,510.5l-51.5,38.3l-2.8-3.7l51.5-38.3L1720.4,510.5z M1710,496.6l-51.5,38.3
				l-2.8-3.7l51.5-38.3L1710,496.6z M1699.7,482.7l-51.5,38.3l-2.8-3.7l51.5-38.3L1699.7,482.7z M1689.3,468.8l-51.5,38.3l-2.8-3.7
				l51.5-38.3L1689.3,468.8z M1679,454.9l-51.5,38.3l-2.8-3.7l51.5-38.3L1679,454.9z"/>
		</g>
	</g>
	<g>
		<path class="st5" d="M1011.8,492.6l8.4,20.1c0.2,0.5,0.2,1.1,0,1.7c-0.2,0.6-0.6,1-1.2,1.2l-9.1,3.8c-0.6,0.2-1.1,0.2-1.7,0
			c-0.6-0.2-1-0.6-1.2-1.2l-8.4-20.1c-0.2-0.5-0.2-1.1,0-1.7c0.2-0.6,0.6-1,1.2-1.2l9.1-3.8c0.5-0.2,1.1-0.2,1.7,0
			C1011.1,491.7,1011.5,492.1,1011.8,492.6z M1013.4,510.8c-0.2-0.5-0.6-0.9-1.2-1.2c-0.6-0.2-1.1-0.2-1.7,0c-0.6,0.2-1,0.6-1.2,1.2
			c-0.2,0.6-0.2,1.1,0,1.7c0.2,0.6,0.6,1,1.2,1.2c0.6,0.2,1.1,0.2,1.7,0c0.5-0.2,0.9-0.6,1.2-1.2
			C1013.6,511.9,1013.6,511.4,1013.4,510.8z M1049.2,477c0.8,1.8,0.8,3.6,0.2,5.4c0.7,0.8,1.2,1.5,1.5,2.2c0.7,1.6,0.9,3.2,0.4,4.9
			c0.8,1,1.4,2.2,1.5,3.7c0.2,1.3,0,2.5-0.5,3.7c1.2,2.3,1.4,4.4,0.8,6.3c-0.7,2.2-2.4,3.8-5.2,5l-1.1,0.5l-2.4,1l-0.5,0.2
			c-1.4,0.6-3,1.1-4.8,1.4c-1.8,0.4-3.2,0.6-4.2,0.7c-1,0.1-2.5,0.2-4.3,0.4c-3,0.2-4.8,0.4-5.6,0.7c-0.6,0.2-1.1,0.2-1.7,0
			c-0.6-0.2-1-0.6-1.2-1.1l-8.4-20.1c-0.2-0.5-0.2-1.1,0-1.6c0.2-0.6,0.6-1,1.1-1.2c0.5-0.3,1-1.2,1.6-2.9c0.6-1.7,1.1-3.4,1.6-5.1
			c0.7-2.4,1.2-4.1,1.6-5.1c0.2-0.5,0.3-1.2,0.4-1.9c0-0.7,0-1.3-0.1-1.8c-0.1-0.4-0.2-1.1-0.4-2.1c-0.2-0.9-0.3-1.6-0.4-2.1
			c-0.1-0.5-0.1-1.1-0.1-1.9c0-0.8,0.2-1.4,0.4-2c0.2-0.6,0.6-1,1.2-1.2c1-0.4,1.9-0.7,2.7-0.8c0.9-0.1,1.6-0.1,2.2,0
			c0.6,0.1,1.2,0.4,1.8,0.7c0.6,0.4,1,0.7,1.3,1.1c0.3,0.4,0.7,0.8,1,1.4c0.4,0.6,0.6,1,0.7,1.3c0.1,0.3,0.3,0.7,0.5,1.2
			c0.3,0.8,0.6,1.6,0.7,2.5c0.1,0.9,0.2,1.6,0.2,2.1c0,0.5-0.1,1.3-0.1,2.1c0,0.2,0,0.4-0.1,0.7c0,0.3-0.1,0.6-0.1,0.8
			c0,0.2,0,0.5,0.1,0.9l8.8-3.7c1.6-0.7,3.3-0.7,5,0C1047.3,474.2,1048.5,475.4,1049.2,477z"/>
	</g>
	<g>
		<path class="st6" d="M857.7,626.5c0,0,5.3,38.1,41.7,41.7c-36.4,3.6-41.7,41.7-41.7,41.7s-5.3-38.1-41.7-41.7
			C852.4,664.6,857.7,626.5,857.7,626.5z"/>
		<path class="st6" d="M821.4,684.6c0,0,2.9,21.1,23.1,23.1c-20.2,2-23.1,23.1-23.1,23.1s-2.9-21.1-23.1-23.1
			C818.5,705.7,821.4,684.6,821.4,684.6z"/>
	</g>
	<g>
		<g>
			<path class="st7" d="M728.3,1114.6v11.8c4.8,0,8.7,3.9,8.7,8.7c0,4.8-3.9,8.7-8.7,8.7v11.8l44.8,15.8v-36.3v-36.3L728.3,1114.6z"
				/>
			<g>
				<g>
					<path class="st8" d="M1280.9,955.4v359.5c0,9.6-7.8,17.3-17.3,17.3H788.1c-9.6,0-17.3-7.7-17.3-17.3V955.4
						c0-9.6,7.8-17.3,17.3-17.3h475.5C1273.1,938,1280.9,945.8,1280.9,955.4z"/>
				</g>
				<g>
					<g>
						<g>
							<rect x="789.6" y="957.1" class="st9" width="472.1" height="356"/>
						</g>
					</g>
				</g>
				<g>
					<path class="st10" d="M705.4,1135.1c0,12.6,10.2,22.9,22.9,22.9c12.6,0,22.9-10.2,22.9-22.9c0-12.6-10.2-22.9-22.9-22.9
						C715.7,1112.2,705.4,1122.5,705.4,1135.1z M737,1135.1c0,4.8-3.9,8.7-8.7,8.7c-4.8,0-8.7-3.9-8.7-8.7c0-4.8,3.9-8.7,8.7-8.7
						C733.1,1126.4,737,1130.3,737,1135.1z"/>
					<g>
						<rect x="762.6" y="1058.4" class="st10" width="49.5" height="153.4"/>
					</g>
				</g>
			</g>
		</g>
		<g>
			
				<rect x="875.8" y="1182.3" transform="matrix(6.123234e-17 -1 1 6.123234e-17 -306.4635 2145.2673)" class="st11" width="87.2" height="87.2"/>
			
				<rect x="990.4" y="1182.3" transform="matrix(6.123234e-17 -1 1 6.123234e-17 -191.8347 2259.8962)" class="st11" width="87.2" height="87.2"/>
			
				<rect x="1105" y="1182.3" transform="matrix(6.123234e-17 -1 1 6.123234e-17 -77.2058 2374.5251)" class="st11" width="87.2" height="87.2"/>
			<g>
				
					<rect x="811.1" y="1078.3" transform="matrix(6.123234e-17 -1 1 6.123234e-17 -202.4666 1972.7362)" class="st11" width="148.1" height="18.7"/>
				
					<rect x="842.7" y="1078.3" transform="matrix(6.123234e-17 -1 1 6.123234e-17 -170.8369 2004.3658)" class="st11" width="148.1" height="18.7"/>
			</g>
			<g>
				
					<rect x="925.7" y="1078.3" transform="matrix(6.123234e-17 -1 1 6.123234e-17 -87.8377 2087.365)" class="st11" width="148.1" height="18.7"/>
				
					<rect x="957.4" y="1078.3" transform="matrix(6.123234e-17 -1 1 6.123234e-17 -56.2068 2118.9961)" class="st11" width="148.1" height="18.7"/>
			</g>
			<g>
				
					<rect x="1040.6" y="1078.3" transform="matrix(6.123234e-17 -1 1 6.123234e-17 27.0369 2202.2397)" class="st11" width="148.1" height="18.7"/>
				
					<rect x="1072.2" y="1078.3" transform="matrix(6.123234e-17 -1 1 6.123234e-17 58.6655 2233.8684)" class="st11" width="148.1" height="18.7"/>
			</g>
		</g>
	</g>
	<g>
		<g>
			<polygon class="st4" points="1903.3,464.4 2014.4,418.1 1892.6,455.6 1902,459.1 			"/>
			<polygon class="st12" points="1902,459.1 2014.4,418.1 1903.3,464.4 			"/>
			<polygon class="st5" points="1903.3,464.4 2014.4,418.1 1912.2,486 			"/>
			<polygon class="st12" points="1903.3,464.4 2014.4,418.1 1918,482.1 			"/>
			<polygon class="st4" points="1903.3,464.4 2014.4,418.1 1937.8,488 			"/>
		</g>
	</g>
	<g>
		<path class="st13" d="M1460,521.9c-11.6,0-21,9.4-21,21V596c0,11.6,9.4,21,21,21c11.6,0,21-9.4,21-21v-53.1
			C1481,531.3,1471.6,521.9,1460,521.9z M1460,551.2c-5.5,0-9.9-4.4-9.9-9.9c0-5.5,4.4-9.9,9.9-9.9c5.5,0,9.9,4.4,9.9,9.9
			C1469.9,546.7,1465.4,551.2,1460,551.2z"/>
		<rect x="972.3" y="580.1" class="st14" width="975.5" height="567.3"/>
		<rect x="955.7" y="558.7" class="st15" width="1008.6" height="21.4"/>
		<rect x="955.7" y="1149.6" class="st15" width="1008.6" height="21.4"/>
		<rect x="1444.5" y="1166.1" class="st15" width="31" height="145.8"/>
		<path class="st15" d="M1662.2,1318.3h-401.9c0-23,200.9-26.7,200.9-26.7S1662.2,1296.1,1662.2,1318.3z"/>
		<g>
			<g>
				<g>
					<rect x="1061.3" y="1007.6" class="st16" width="113" height="92.9"/>
					<rect x="1199" y="869.2" class="st16" width="113" height="231.3"/>
					<rect x="1336.7" y="903.2" class="st16" width="113" height="197.4"/>
					<rect x="1474.5" y="783.7" class="st16" width="113" height="316.8"/>
					<rect x="1612.2" y="739.7" class="st16" width="113" height="360.8"/>
					<rect x="1749.9" y="661.1" class="st16" width="113" height="439.4"/>
				</g>
			</g>
			<g>
				<path class="st16" d="M1115.4,990c-0.4,0-0.8-0.1-1.1-0.3c-0.8-0.5-0.9-1.4-0.3-2.1l137.7-142.4c0.5-0.5,1.2-0.7,1.9-0.5
					l139,34.5l137-117.1c0.2-0.2,0.4-0.3,0.6-0.4l137.6-45.2l137.6-74.8c0.5-0.3,1.1-0.3,1.6-0.2l-0.4,3.1l-137,74.5
					c-0.1,0.1-0.2,0.1-0.3,0.1L1532,764.4l-137.5,117.5c-0.5,0.4-1.2,0.6-1.8,0.4l-138.9-34.4l-137,141.6
					C1116.5,989.8,1116,990,1115.4,990z"/>
			</g>
			<path class="st17" d="M1128.6,988.5c0,4.9-4.9,8.9-10.9,8.9c-6,0-10.9-4-10.9-8.9c0-4.9,4.9-8.9,10.9-8.9
				C1123.8,979.6,1128.6,983.6,1128.6,988.5z"/>
			<path class="st17" d="M1266.3,844.1c0,4.9-4.9,8.9-10.9,8.9c-6,0-10.9-4-10.9-8.9c0-4.9,4.9-8.9,10.9-8.9
				C1261.5,835.1,1266.3,839.1,1266.3,844.1z"/>
			<path class="st17" d="M1404.1,880.8c0,4.9-4.9,8.9-10.9,8.9c-6,0-10.9-4-10.9-8.9c0-4.9,4.9-8.9,10.9-8.9
				C1399.2,871.9,1404.1,875.9,1404.1,880.8z"/>
			<path class="st17" d="M1541.8,763.1c0,4.9-4.9,8.9-10.9,8.9c-6,0-10.9-4-10.9-8.9c0-4.9,4.9-8.9,10.9-8.9
				C1537,754.2,1541.8,758.2,1541.8,763.1z"/>
			<path class="st17" d="M1679.6,714.7c0,4.9-4.9,8.9-10.9,8.9c-6,0-10.9-4-10.9-8.9c0-4.9,4.9-8.9,10.9-8.9
				C1674.7,705.8,1679.6,709.8,1679.6,714.7z"/>
			<path class="st17" d="M1817.3,643c0,4.9-4.9,8.9-10.9,8.9c-6,0-10.9-4-10.9-8.9c0-4.9,4.9-8.9,10.9-8.9
				C1812.4,634.1,1817.3,638.1,1817.3,643z"/>
		</g>
	</g>
	<g>
		<path class="st18" d="M1186.6,594l-17.9,107.1l-85.1-67.5C1109,601.6,1148.9,587.8,1186.6,594z"/>
		<path class="st19" d="M1236.1,616.1c25.9,20.5,39.9,50.5,41,81.2c0.9,24.9-6.7,50.3-23.4,71.4l-85.1-67.5l17.9-107.1
			C1204.1,596.9,1221.2,604.2,1236.1,616.1z"/>
		<path class="st18" d="M1168.6,701.1l85.1,67.5c-25.4,32.1-65.3,45.9-103,39.6L1168.6,701.1z"/>
		<path class="st20" d="M1168.6,701.1l-17.9,107.1c-17.6-2.9-34.6-10.2-49.6-22c-25.9-20.5-39.9-50.5-41-81.2L1168.6,701.1z"/>
		<path class="st21" d="M1047.4,620.6l85.1,67.5l-108.5,3.9C1023,667.1,1030.7,641.7,1047.4,620.6z"/>
	</g>
	<polygon class="st22" points="2116.7,662.6 1867.7,751.5 1941.5,809.8 1680.5,1092.4 1473.8,860 1007.8,1331.7 1146.7,1331.7 
		1454.1,983.6 1677.3,1207.4 2000.1,853.4 2066,904.5 	"/>
	<g>
		<polygon class="st23" points="1038.9,1071 1045.9,1117.6 1059.8,1113.6 1043.6,1070.1 		"/>
		<path class="st24" d="M1033.6,1072.5c-3.7-3.9,9.2-11.7,13.2-8c3.9,3.7,6.1,10.9,2.4,14.8c-3.7,3.9-7.9,3.7-12.9,1.3
			C1029.8,1077.5,1037.5,1076.6,1033.6,1072.5z"/>
		<g>
			<g>
				<path class="st5" d="M1014.5,1051.9l-4.6,14.8c-0.1,0.4,0.1,0.9,0.5,1l32.2,10c0.4,0.1,0.9-0.1,1-0.5l4.6-14.8
					c0.1-0.4-0.1-0.9-0.5-1l-32.2-10C1015,1051.3,1014.6,1051.5,1014.5,1051.9z"/>
				
					<rect x="1019.8" y="1049.5" transform="matrix(0.2957 -0.9553 0.9553 0.2957 -292.5187 1731.92)" class="st25" width="17.1" height="29.7"/>
				<path class="st5" d="M1044.5,1068.2c0.6,0.2,0.9,0.8,0.7,1.4c-0.2,0.6-0.8,0.9-1.4,0.7c-0.6-0.2-0.9-0.8-0.7-1.4
					C1043.3,1068.3,1043.9,1068,1044.5,1068.2z"/>
				<path class="st25" d="M1042.9,1068.9c-0.2,0.7,0.2,1.4,0.9,1.6c0.7,0.2,1.4-0.2,1.6-0.9c0.2-0.7-0.2-1.4-0.9-1.6
					C1043.9,1067.8,1043.1,1068.2,1042.9,1068.9z M1045.2,1069.6c-0.2,0.6-0.8,0.9-1.4,0.7c-0.6-0.2-0.9-0.8-0.7-1.4
					c0.2-0.6,0.8-0.9,1.4-0.7C1045.1,1068.4,1045.4,1069,1045.2,1069.6z"/>
			</g>
		</g>
		<g>
			<rect x="968.9" y="1168.4" class="st23" width="53.2" height="27.1"/>
			<path class="st26" d="M968.9,1189.5c0,0,18.9,2.7,30.5-6.8c9.9,8.8,22.6-0.7,22.6-0.7v-11h-53.1L968.9,1189.5z"/>
			<polygon class="st5" points="993.1,1147.8 992.6,1142.3 968.9,1091.2 984.5,1086.3 1008.1,1086.9 			"/>
			<path class="st27" d="M1001.6,1088.1c0,3.5-2.9,6.4-6.4,6.4l0,0c-3.5,0-6.4-2.9-6.4-6.4v-7.6c0-3.5,2.9-6.4,6.4-6.4l0,0
				c3.5,0,6.4,2.9,6.4,6.4V1088.1z"/>
			<path class="st28" d="M1044.2,1334.1c-10.7,0-31.8,0-31.8,0v-17.4l8.4,0.5C1028.2,1327.4,1041.8,1313.3,1044.2,1334.1z"/>
			<polygon class="st23" points="1008.1,1246.8 1020.9,1246.8 1022,1195.5 999.4,1195.5 			"/>
			<polygon class="st23" points="1012.4,1317.2 1020.9,1317.2 1020.9,1246.8 1008.1,1246.8 			"/>
			<rect x="1012.4" y="1331.7" class="st28" width="31.8" height="2.4"/>
			<path class="st28" d="M946.7,1334.1c10.7,0,31.8,0,31.8,0v-17.4l-8.4,0.5C962.8,1327.4,949.2,1313.3,946.7,1334.1z"/>
			<polygon class="st23" points="982.8,1246.8 970.1,1246.8 968.9,1195.5 991.5,1195.5 			"/>
			<polygon class="st23" points="978.5,1317.2 970.1,1317.2 970.1,1246.8 982.8,1246.8 			"/>
			<rect x="946.7" y="1331.7" class="st28" width="31.8" height="2.4"/>
			<path class="st23" d="M939.1,1138.7c4.2,2.8,9.1,1.5,15.4-6.2c8.9-10.8,26-20.4,26-20.4c12-10.8,1.3-22.3-6.5-24.5
				c-4.8-1.3-12.4,0-15.7,5.2l-20.6,31.5C934.2,1129.5,934.9,1135.9,939.1,1138.7L939.1,1138.7z"/>
			<polygon class="st23" points="965.6,1164.2 951.5,1131.9 937.4,1136.4 958.1,1170.1 			"/>
			<polygon class="st29" points="991,1138 994.9,1140.7 998,1137.1 997.1,1092.5 992.7,1092.5 			"/>
			<path class="st23" d="M1006,1086.8l12.1,0.2c0,0,2.7,78.8,5.4,88.8c-4.8,5.3-18.3,18.4-26.1-2c-8.6-22.7-3-37.5-3-37.5
				L1006,1086.8z"/>
			<polygon class="st30" points="1006,1086.8 1015.9,1102.4 1006.4,1111.3 1014.7,1114.5 993.1,1138.8 			"/>
			<path class="st23" d="M984.5,1086.3l-15.6,0.7c0,0-0.3,78.8-3.2,88.8c4.9,5.3,27.9,17.1,31.1-4.6c3.4-22.7-2.3-34.1-2.3-34.1
				L984.5,1086.3z"/>
			<polygon class="st30" points="984.5,1086.3 974.5,1102.4 984.3,1111.3 975.7,1114.5 994.5,1137.3 			"/>
			<path class="st27" d="M977,1170.8c5.5,2.6-4.8,15.9-10.4,13.7c-5.6-2.3-10.8-8.8-8.5-14.4c2.3-5.6,6.7-7.1,12.8-6.6
				C978.8,1164.1,971.2,1168.1,977,1170.8z"/>
			<rect x="992.7" y="1088.3" class="st29" width="4.4" height="4.4"/>
			<path class="st26" d="M1003,1088.7l-5.9,7.8l-2.2-2.1l-2.4,3.4l-4.4-9.1l3.8,5.7l1.2-1.9l3.9,0.4
				C998.1,1093.8,1003,1088.7,1003,1088.7z"/>
			<polygon class="st5" points="997.1,1094.5 1004.5,1087.2 1003.4,1083.8 995.5,1088.3 			"/>
			<polygon class="st5" points="992.6,1094.5 986.3,1086.5 988.4,1083 994.9,1088.3 			"/>
			<path class="st27" d="M1026,1061.8c0,12.8-10.4,23.3-23.3,23.3c-12.8,0-23.3-10.4-23.3-23.3c0-12.8,10.4-23.8,23.3-23.3
				C1029.7,1039.7,1011.6,1064.5,1026,1061.8z"/>
			<path class="st5" d="M1018.7,1071.1h-16C1002,1078.3,1012.6,1085.8,1018.7,1071.1z"/>
			<path class="st31" d="M1022.9,1033.2c-4,2-4.7,3.4-13,1.6c-11.7-2.6-28.1-2.4-27.9-0.9c-8.6,3.9-14.6,12.5-14.6,22.5
				c0,13.2,10.3,23.9,23.3,24.6c-0.4-1.7-0.7-3.5-0.7-5.3c0-1.1,0.1-2.2,0.3-3.3c-0.9,0.5-2,0.8-3.1,0.8c-3.7,0-6.7-3-6.7-6.7
				c0-3.7,3-6.7,6.7-6.7c2.9,0,5.3,1.8,6.3,4.3c1.9-6.1,0.6-10.5,0.6-10.5c6.9,0.8,12.8,2,22.4-0.9
				C1025.1,1049.6,1029.2,1042.4,1022.9,1033.2z"/>
		</g>
		<path class="st23" d="M1059.6,1116.4c1.1-4.4-1.5-8.1-9.8-11.2c-11.8-4.4-25-15.9-25-15.9c-12.7-6.9-19.3,5.5-18.8,12.8
			c0.3,4.5,3.7,10.5,9.1,11.8l32.8,8.1C1053.3,1123.3,1058.5,1120.8,1059.6,1116.4L1059.6,1116.4z"/>
	</g>
	<g>
		<g>
			<path class="st5" d="M1113.9,1219.1c0,74.3,60.2,134.5,134.5,134.5c74.3,0,134.5-60.2,134.5-134.5c0-74.3-60.2-134.5-134.5-134.5
				C1174.1,1084.6,1113.9,1144.8,1113.9,1219.1z"/>
			<path class="st19" d="M1140.6,1219.1c0,59.5,48.3,107.8,107.8,107.8c59.5,0,107.8-48.3,107.8-107.8
				c0-59.5-48.3-107.8-107.8-107.8C1188.9,1111.3,1140.6,1159.6,1140.6,1219.1z"/>
			<path class="st5" d="M1167.3,1219.1c0,44.8,36.3,81.1,81.1,81.1c44.8,0,81.1-36.3,81.1-81.1c0-44.8-36.3-81.1-81.1-81.1
				C1203.6,1138,1167.3,1174.3,1167.3,1219.1z"/>
			<path class="st19" d="M1194,1219.1c0,30,24.3,54.4,54.4,54.4c30,0,54.4-24.4,54.4-54.4c0-30-24.3-54.4-54.4-54.4
				C1218.3,1164.7,1194,1189.1,1194,1219.1z"/>
			<path class="st5" d="M1220.7,1219.1c0,15.3,12.4,27.7,27.7,27.7c15.3,0,27.7-12.4,27.7-27.7c0-15.3-12.4-27.7-27.7-27.7
				C1233.1,1191.4,1220.7,1203.8,1220.7,1219.1z"/>
		</g>
		<g>
			
				<rect x="1162.4" y="1040.8" transform="matrix(0.7071 -0.7071 0.7071 0.7071 -462.2847 1157.4531)" class="st32" width="7.3" height="191.9"/>
			<polygon class="st32" points="1233.1,1185.9 1248.4,1219.1 1215.2,1203.9 1228.5,1199.2 			"/>
			<polygon class="st32" points="1089,1041.8 1112.2,1065 1112.2,1083 1094.3,1083 1071.1,1059.7 1089,1059.7 			"/>
		</g>
		<path class="st33" d="M1150.8,1311.6l73.9-73.9l-9.4-3.3l33.2-15.3l-15.3,33.2l-3.3-9.4l-73.9,73.9
			C1154.2,1315.1,1152.4,1313.4,1150.8,1311.6z"/>
	</g>
	<g>
		<g>
			<g>
				<path class="st34" d="M1663,1323.2c-24.5,0-44.3-19.9-44.3-44.3v-169.4c0-24.5,19.9-44.3,44.3-44.3h444.4
					c24.5,0,44.3,19.9,44.3,44.3v169.4c0,24.5-19.9,44.3-44.3,44.3H1663z"/>
				<rect x="1670.1" y="1073.5" class="st9" width="437.3" height="241.3"/>
				<path class="st9" d="M1642.6,1222.1c-6.9,0-12.4-5.6-12.4-12.4v-31c0-6.9,5.6-12.4,12.4-12.4l0,0c6.9,0,12.4,5.6,12.4,12.4v31
					C1655,1216.5,1649.5,1222.1,1642.6,1222.1L1642.6,1222.1z"/>
				<path class="st9" d="M2130.4,1213.2c-1,0-1.8-0.8-1.8-1.8v-33.7c0-1,0.8-1.8,1.8-1.8l0,0c1,0,1.8,0.8,1.8,1.8v33.7
					C2132.2,1212.4,2131.4,1213.2,2130.4,1213.2L2130.4,1213.2z"/>
				<path class="st9" d="M2130.4,1243.4c-1,0-1.8-0.3-1.8-0.7V1229c0-0.4,0.8-0.7,1.8-0.7l0,0c1,0,1.8,0.3,1.8,0.7v13.6
					C2132.2,1243,2131.4,1243.4,2130.4,1243.4L2130.4,1243.4z"/>
				<path class="st9" d="M2131.8,1127.2c-2.4,0-4.4-2-4.4-4.4c0-2.4,2-4.4,4.4-4.4c2.5,0,4.4,2,4.4,4.4
					C2136.2,1125.2,2134.2,1127.2,2131.8,1127.2z"/>
				<path class="st9" d="M2131.8,1148.5c-2.4,0-4.4-2-4.4-4.4c0-2.5,2-4.4,4.4-4.4c2.5,0,4.4,2,4.4,4.4
					C2136.2,1146.5,2134.2,1148.5,2131.8,1148.5z"/>
			</g>
		</g>
		<polygon class="st19" points="1670.1,1185.2 1741.1,1163.5 1789,1186.8 1876.7,1204.5 1919,1171.9 1997.3,1175.8 2023.5,1160.9 
			2080.1,1162.3 2107.4,1184.1 2107.4,1150.1 2107.4,1307.8 1670.1,1307.8 		"/>
		<polygon class="st18" points="1670.1,1216.2 1704,1164.6 1789,1213 1831.7,1197.4 1896.3,1224.5 1954.9,1189.3 2007.4,1204 
			2063.9,1149.2 2074,1197.4 2107.4,1156.6 2107.4,1307.8 1670.1,1307.8 		"/>
		<polygon class="st20" points="1670.1,1225.7 1746.3,1185.2 1796.1,1250.1 1847.3,1233.9 1863,1250.1 1942.8,1182.5 1953.9,1227.5 
			2012.4,1250.1 2066,1229.1 2107.4,1217 2107.4,1314.8 1670.1,1314.8 		"/>
		<path class="st5" d="M1745.2,1291.1c0,1-0.8,1.9-1.9,1.9h-56.6c-1,0-1.9-0.8-1.9-1.9l0,0c0-1,0.8-1.9,1.9-1.9h56.6
			C1744.4,1289.2,1745.2,1290,1745.2,1291.1L1745.2,1291.1z"/>
		<path class="st5" d="M1832.4,1291.1c0,1-0.8,1.9-1.9,1.9h-56.6c-1,0-1.9-0.8-1.9-1.9l0,0c0-1,0.8-1.9,1.9-1.9h56.6
			C1831.5,1289.2,1832.4,1290,1832.4,1291.1L1832.4,1291.1z"/>
		<path class="st5" d="M1919.5,1291.1c0,1-0.8,1.9-1.9,1.9H1861c-1,0-1.9-0.8-1.9-1.9l0,0c0-1,0.8-1.9,1.9-1.9h56.6
			C1918.7,1289.2,1919.5,1290,1919.5,1291.1L1919.5,1291.1z"/>
		<path class="st5" d="M2006.7,1291.1c0,1-0.8,1.9-1.9,1.9h-56.6c-1,0-1.9-0.8-1.9-1.9l0,0c0-1,0.8-1.9,1.9-1.9h56.6
			C2005.8,1289.2,2006.7,1290,2006.7,1291.1L2006.7,1291.1z"/>
		<path class="st5" d="M2093.8,1291.1c0,1-0.8,1.9-1.9,1.9h-56.6c-1,0-1.9-0.8-1.9-1.9l0,0c0-1,0.8-1.9,1.9-1.9h56.6
			C2093,1289.2,2093.8,1290,2093.8,1291.1L2093.8,1291.1z"/>
	</g>
	<g>
		<polygon class="st35" points="2021.2,1042 2064.9,1042 2066.7,970.7 2021.4,970.7 		"/>
		<path class="st27" d="M2038.7,971.5c0,2.9,2.4,5.3,5.3,5.3l0,0c2.9,0,5.3-2.4,5.3-5.3v-6.3c0-2.9-2.4-5.3-5.3-5.3l0,0
			c-2.9,0-5.3,2.4-5.3,5.3V971.5z"/>
		<path class="st13" d="M1998.1,1152.7c11-1.4,32.7-4,32.7-4l-2.2-17.9l-8.6,1.5C2013.7,1143.8,1998,1131,1998.1,1152.7z"/>
		<path class="st27" d="M2018.7,950c0,10.6,8.6,19.1,19.1,19.1c10.5,0,19.1-8.6,19.1-19.1c0-10.5-8.6-19.5-19.1-19.1
			C2015.6,931.8,2030.5,952.1,2018.7,950z"/>
		<path class="st36" d="M2019.2,927.9c0,0,35.5-2,35.3-0.8c7.1,3.2,12,10.2,12,18.5c0,10.8-8.5,19.6-19.1,20.2
			c0.3-1.4,0.5-2.9,0.5-4.4c0-0.9-0.1-1.8-0.2-2.7c0.8,0.4,1.6,0.6,2.6,0.6c3,0,5.5-2.5,5.5-5.5c0-3-2.5-5.5-5.5-5.5
			c-2.4,0-4.4,1.5-5.1,3.6c-0.6-1.8-3.6-10.9-5.6-12c-3.4-2-13.7,2.8-15.3,3.6C2021.9,937,2019.2,927.9,2019.2,927.9z"/>
		<path class="st35" d="M2083.2,1021.6c-3.9-2.4-6.8-3.8-10.2-11.2c-4.8-10.5-16.2-21.7-16.2-21.7c-7.2-11.2,3.8-18,10.4-18
			c4.1,0,9.8,2.7,11.4,7.5l9.6,29.4C2093.2,1019.2,2083.2,1021.6,2083.2,1021.6z"/>
		<path class="st35" d="M2007.1,1018.1c-3.4-2.4-3.9-6.5,0-13.6c5.5-10.1,7.5-26,7.5-26c4.6-12.5,16.6-7.8,20.6-2.5
			c2.5,3.3,3.8,9.4,0.9,13.6l-17.7,25.4C2015.6,1019,2010.5,1020.4,2007.1,1018.1L2007.1,1018.1z"/>
		<path class="st35" d="M1977.4,975.2l41.8,32.3c0,0-4.7,10.4-9.3,11.6c-4.7,1.3-35.2-40.6-35.2-40.6L1977.4,975.2z"/>
		<path class="st27" d="M1974.7,963.8c-1.2-4.8-13.6,1.5-12.6,6.3c1,4.9,5.5,10,10.3,9c4.9-1,6.7-4.3,7.3-9.3
			C1980.4,963.3,1976,968.9,1974.7,963.8z"/>
		<rect x="2011" y="1041.9" class="st37" width="55.1" height="22.4"/>
		<polygon class="st37" points="2012.4,1056.6 2013.5,1069.7 2066.6,1066.6 2064.7,1043.2 		"/>
		<polygon class="st37" points="2019.7,1132.4 2028.4,1131.3 2019.4,1059 2006.3,1060.6 		"/>
		<path class="st13" d="M1944.7,1129.3c11.1,1.2,32.8,3.5,32.8,3.5l1.9-17.9l-8.8-0.4C1962,1124.1,1949.5,1108.1,1944.7,1129.3z"/>
		<polygon class="st37" points="1980.5,1055.6 1978.2,1042.6 2033.6,1041.8 2035.6,1066.5 		"/>
		<polygon class="st37" points="1979.3,1115.3 1970.6,1114.4 1978.3,1041.9 1991.4,1043.3 		"/>
		<path class="st5" d="M2024.7,957.6h13.1C2038.4,963.5,2029.7,969.7,2024.7,957.6z"/>
		<path class="st27" d="M2031.7,982.3c-2.8-4.1-12.3,5.9-9.8,10.1c2.5,4.3,8.5,7.7,12.7,5.1c4.3-2.5,4.9-6.3,3.8-11.2
			C2036.9,979.9,2034.6,986.6,2031.7,982.3z"/>
		<polygon class="st12" points="2061.3,988.7 2061.6,997.2 2038.9,990.8 2065.6,1014.7 2066,999.9 2066,998.2 		"/>
		<polygon class="st35" points="2038.2,990.8 2088.2,1007.6 2083.2,1021.6 2036.6,994.9 		"/>
		<g>
			<path class="st38" d="M1978,967.3c0.6,1.1,0.1,2.5-1.1,3.1l-7.9,3.8c-1.1,0.6-2.5,0.1-3.1-1.1l-10.1-20.8
				c-0.6-1.1-0.1-2.5,1.1-3.1l7.9-3.8c1.1-0.6,2.5-0.1,3.1,1.1L1978,967.3z"/>
			
				<rect x="1960.6" y="948.3" transform="matrix(0.8996 -0.4367 0.4367 0.8996 -221.6188 955.2919)" class="st39" width="12.6" height="22.7"/>
			<path class="st40" d="M1973.7,970.5c0.2,0.3,0,0.7-0.3,0.9l-1.5,0.7c-0.3,0.2-0.7,0-0.9-0.3l0,0c-0.2-0.3,0-0.7,0.3-0.9l1.5-0.7
				C1973.2,970.1,1973.6,970.2,1973.7,970.5L1973.7,970.5z"/>
			<path class="st40" d="M1962.2,947.9c0,0,0,0.1,0,0.1l-1.6,0.8c0,0-0.1,0-0.1,0l0,0c0,0,0-0.1,0-0.1l1.6-0.8
				C1962.2,947.8,1962.2,947.9,1962.2,947.9L1962.2,947.9z"/>
			<path class="st40" d="M1963.7,947.2C1963.7,947.3,1963.7,947.3,1963.7,947.2l-0.6,0.4c0,0-0.1,0-0.1-0.1l0,0c0,0,0-0.1,0-0.1
				L1963.7,947.2C1963.6,947.1,1963.6,947.2,1963.7,947.2L1963.7,947.2z"/>
			<path class="st40" d="M1958.2,949.8c0.1,0.1,0,0.3-0.1,0.3c-0.1,0.1-0.3,0-0.3-0.1c-0.1-0.1,0-0.3,0.1-0.3
				C1958,949.6,1958.1,949.7,1958.2,949.8z"/>
			<path class="st40" d="M1959.2,949.3c0.1,0.1,0,0.3-0.1,0.3c-0.1,0.1-0.3,0-0.3-0.1c-0.1-0.1,0-0.3,0.1-0.3
				C1959,949.1,1959.1,949.2,1959.2,949.3z"/>
		</g>
	</g>
	<g>
		<polygon class="st41" points="1379.2,548.2 1384,563.1 1364.1,563.1 1355.4,554.9 1350.7,549.4 1354.4,542.1 1365.7,541.2 		"/>
		<g>
			<g>
				<g>
					<path class="st41" d="M1303.3,507.2c4-1.9,10.2-7.2,14.3-13.9c5.8-9.5,18-18.9,18-18.9c6.4-7.8-1.5-17.7-7.9-18.4
						c-3.9-0.5-9.7,1.5-11.7,5.9l-15.1,33.7C1295.7,505.2,1303.3,507.2,1303.3,507.2z"/>
					<polygon class="st35" points="1351.3,528.7 1317.8,528.7 1324.1,494.1 1324.7,455.9 1354.5,455.9 1357.9,490.6 1352.9,498.4 
											"/>
					<g>
						<rect x="1317.8" y="528.7" class="st42" width="33.6" height="16.9"/>
						<path class="st42" d="M1370,564.6l10.2-5.1l-62.4-30.8c0,0-12.4,26.5,5.7,29.2C1341.7,560.5,1370,564.6,1370,564.6z"/>
						<polygon class="st42" points="1357.1,619 1364.4,620.9 1380.3,559.4 1369.1,556.5 						"/>
						<path class="st43" d="M1364.4,620.9c4.1,10.5,18.9,11.2,16.6,20c-5.5-1.4-14.2-3.7-20.4-5.3c0,0,0-0.1,0-0.1
							c0,0,0.5-6.4-0.8-6.8c-1.3-0.3-2.6,0.4-3,1.7l-0.9,3.9c-1.7-0.4-2.7-0.7-2.7-0.7l3.9-15.2L1364.4,620.9z"/>
						<polygon class="st42" points="1398.1,548.2 1400,536.9 1351.3,528.7 1347.3,548.2 						"/>
						<polygon class="st42" points="1390.7,599.8 1398.3,600.1 1400,536.9 1389.1,536.2 						"/>
						<path class="st43" d="M1398.5,600.8c6.3,9.4,20.9,6.9,20.5,16c-5.7-0.2-14.7-0.5-21.1-0.8c0,0,0-0.1,0-0.1
							c0,0-0.9-6.4-2.3-6.4c-1.3,0-2.5,1-2.5,2.3l-0.1,4c-1.7-0.1-2.8-0.1-2.8-0.1l0.6-15.7L1398.5,600.8z"/>
					</g>
					<polygon class="st41" points="1333.9,457.2 1334.6,563.1 1303.3,563.1 1324.7,455.9 1338.1,455.9 					"/>
					<path class="st12" d="M1318.6,500.8l-1.5-6.6l0,0l-2.6,13.1c1.2,1.6,2.5,3.2,3,3.8c1.1,1.3,9.5,6.9,9.5,6.9s8.7,2.1,9,2
						c0.2-0.1,0.6-1.9,0.8-2.7l0-0.4L1318.6,500.8z"/>
					<path class="st12" d="M1316.2,521.8c2.7-0.4,16.1,2.2,16.1,2.2c-0.1-6.2-16.7-13.8-16.7-13.8l-1.6-0.2l-10.6,53.1
						C1303.3,563.1,1313.5,522.2,1316.2,521.8z"/>
					<path class="st27" d="M1344.3,456.7c0,2.9-2.3,5.2-5.2,5.2l0,0c-2.9,0-5.2-2.3-5.2-5.2v-6.2c0-2.9,2.3-5.2,5.2-5.2l0,0
						c2.9,0,5.2,2.3,5.2,5.2V456.7z"/>
					<path class="st41" d="M1371,490.1c-3.7-10.9-8.3-22-10.5-27.7c-2.3-5.7-4.3-8.9-12-5.1c-4.5,2.2-3.9,8.5-1.9,13.1l13.8,28.1
						c2,4.6,4.9,6.7,8.7,5C1369.1,503.5,1373.7,497.8,1371,490.1z"/>
					<polygon class="st41" points="1344.3,455.7 1351.3,528.7 1374.5,532.6 1351.9,455.7 					"/>
					<polygon class="st41" points="1333.8,518.1 1305.5,490.8 1303.3,507.2 1332.2,524 					"/>
					<path class="st27" d="M1343.5,528.2c1.8,4.4,2.9-2.6,2.4-7.3c-0.5-4.8-4.4-4.4-9.2-3.9c-4.8,0.5-4.5-0.7-5.5,4
						C1329.9,527.2,1341.6,523.6,1343.5,528.2z"/>
				</g>
				<g>
					<path class="st4" d="M1332.3,523.3v1.8c0,0.5,0.4,0.9,0.9,0.9h82.1c0.5,0,0.9-0.4,0.9-0.9v-1.4v-0.4V484v-2.5
						c0-0.5-0.4-0.9-0.9-0.9h-51.8h-5.3h-10.9c-0.5,0-1,0.4-1,0.9v13.6v28.2H1332.3z M1391.1,500.8c0,3.5-2.8,6.3-6.3,6.3
						c-2.4,0-4.5-1.4-5.6-3.4c0.1,0,0.2,0,0.2,0c3.5,0,6.3-2.8,6.3-6.3c0-1-0.3-2-0.7-2.9C1388.5,494.7,1391.1,497.5,1391.1,500.8z"
						/>
					<path class="st44" d="M1384.9,507.1c-2.4,0-4.5-1.4-5.6-3.4c0.1,0,0.2,0,0.2,0c3.5,0,6.3-2.8,6.3-6.3c0-1-0.3-2-0.7-2.9
						c3.4,0.1,6,2.9,6,6.3C1391.1,504.3,1388.3,507.1,1384.9,507.1z"/>
				</g>
			</g>
			<g>
				<path class="st27" d="M1361.1,432.1c2.1,10.2-4.4,20.1-14.5,22.2c-10.1,2.1-20.1-4.4-22.2-14.5c-2.1-10.1,4.3-20.5,14.5-22.2
					C1360.4,414,1350.2,436.6,1361.1,432.1z"/>
				<path class="st5" d="M1358.4,441.4l-7.9,1.7C1350.9,446.7,1356.9,449.3,1358.4,441.4z"/>
				<g>
					<path class="st45" d="M1361.1,418.1c0.4-0.4,0.5-0.8,0.5-1.3c-0.3-3.4-2.7-5.5-5.1-2.5c-1.2,1.6-1.7,1.7-3.9,0.7
						c-9.6-4.4-20.5-2.8-21.7-1.8c-8.1,0.3-16,10.9-16,19c0,10.6,8.3,19.3,18.8,19.9c-0.3-1.4-0.5-2.8-0.5-4.3
						c0-0.9,0.1-1.8,0.2-2.7c-0.8,0.4-1.6,0.6-2.5,0.6c-3,0-5.4-2.4-5.4-5.4c0-3,2.4-5.4,5.4-5.4c2.3,0,4.3,1.5,5.1,3.5
						c0.6-1.8,3.8-3.1,4.4-10.3c0.6-0.3,1.1-0.6,1.5-1.1c0.1,4.2,8.3,3.3,9.4,0c-0.8,2.2,1.7,2.5,3.3,2.2c2.1-0.1,3.5-1.2,4.2-3.3
						c1.7,3.4,5.3,0.7,6.1-2C1365.5,420.8,1363.2,419.4,1361.1,418.1z"/>
				</g>
				<path class="st45" d="M1317.5,432.2c-8.3,12.6-18.2,1.5-22.1,15.4c-5.4-6.6-7-16.1-4.4-22.9c2.6-6.5,7.2-9.7,14.3-10.4
					C1320.2,412.9,1321.5,426.1,1317.5,432.2z"/>
			</g>
		</g>
	</g>
	<g>
		<path class="st46" d="M1696.3,883.7c-4-3-4.4-8,0.6-16.3c7.1-11.8,10.3-30.8,10.3-30.8c6.1-14.7,20.3-8.6,24.8-2
			c2.8,4,4,11.5,0.4,16.3l-22.4,29.5C1706.5,885.2,1700.3,886.7,1696.3,883.7L1696.3,883.7z"/>
		<polygon class="st46" points="1671.8,853.3 1713.1,876.5 1696.3,883.7 1668.7,857.5 		"/>
		<path class="st27" d="M1657.7,841.8c-6,1.1-5.8,6.9,0.5,5.1c5-1.4-4.3,5.1,7.1,10.7c5.3,2.6,4.9,1.5,6.4-4.3
			C1673.9,845.7,1663.9,840.7,1657.7,841.8z"/>
		
			<rect x="1629" y="727.5" transform="matrix(0.8596 -0.5109 0.5109 0.8596 -180.1002 945.5088)" class="st47" width="3.5" height="146"/>
		<g>
			<g>
				<path class="st48" d="M1729.8,852.3c3.8-3.5,8-7.4,5.4-13c-2.2-4.3-5.9-7.4-8-11.9c-1.8-3.6-1.6-6.6,0.7-10
					c1.2-1.9,2.7-3,3.1-5.1c0.5-2.6-0.7-3.6-1.8-5.8c-5.1-9,3.8-16.5,12.7-15.2l3.7-6.5c4.3,0,10.4,5.8,11.9,9.7
					c1.3,3.4,5.9,9.6,4.6,13c-1.2,3.8-2.8,4.5,1.2,7.6c2.3,2,5.1,2.3,3.9,6.3c-0.9,2.8-7,7.1-4.2,10.5c2.3,2.8,9.3,1.2,8.8,6.7
					c-0.1,2-2.6,2.8-2.3,5c0.3,2.4,3.4,2.8,5,4c4.3,3.2,4.5,8.9-0.3,11.5c-2.2,1.1-4,1.6-4.2,4.5c-0.1,2.4,2,3.6,2.7,5.8
					c1.1,4-4,7.1-7.3,8.1c-4,0.9-7.8,1.3-11.7,2.7c-4.6,1.5-10.1-1.1-14.3-3.1c-4.7-2.3-11.3-5.3-13.4-10.5
					C1724,861.1,1725.6,856.2,1729.8,852.3z"/>
			</g>
			<polygon class="st46" points="1705.9,916.2 1756.4,916.1 1748.9,875.7 1751.2,830.9 1711.4,830.3 1714.5,874.2 			"/>
			<path class="st27" d="M1725.2,831.9c0,3.4,2.7,6.1,6.1,6.1l0,0c3.4,0,6.1-2.7,6.1-6.1l0-7.3c0-3.4-2.7-6.1-6.1-6.1l0,0
				c-3.4,0-6.1,2.7-6.1,6.1L1725.2,831.9z"/>
			<polygon points="1705.9,934 1756.4,933.9 1756.4,916.1 1705.9,916.2 1705.9,925 			"/>
			<polygon class="st27" points="1748,982.6 1736.1,981.9 1734.7,933.9 1756.2,933.9 			"/>
			<polygon class="st27" points="1780.8,1032.2 1774.3,1036.7 1736.1,981.9 1746,975 			"/>
			<path class="st27" d="M1783.7,1036.2l-3.1-4.4l-6.3,4.9c-0.1,5.7-3.4,10.1-6.3,13.9C1775.9,1051.4,1780.2,1044.6,1783.7,1036.2z"
				/>
			<path class="st49" d="M1768,1050.7c-3.1,4.2-5.6,7.8-2.7,11.9c4.9-3.4,12.7-8.8,18.2-12.7c0,0,0-0.1-0.1-0.1c0,0-2.8-6.2-1.7-7
				c1.2-0.8,2.8-0.5,3.6,0.6l2.4,3.5c1.5-1,2.4-1.7,2.4-1.7l-6.4-9.1C1780.2,1044.6,1775.9,1051.4,1768,1050.7z"/>
			<polygon points="1719.6,982.6 1707.5,982.6 1706.3,934 1727.8,933.9 			"/>
			<polygon class="st27" points="1715.6,1049.5 1707.5,1049.5 1707.5,982.6 1719.6,982.6 			"/>
			<path class="st27" d="M1706.8,1058.4c3-1.8,5.9-3.7,8.8-5.6l0-3.7l-8,0.4c-4.1,5.6-10.9,6.9-15.9,8.9
				C1695.5,1061.9,1703.4,1060.1,1706.8,1058.4z"/>
			<path class="st49" d="M1706.8,1058.4c-3.4,1.7-11.4,3.4-15.2-0.1c-3.6,1.4-6.2,3.2-6.2,7.2c6,0,15.5,0,22.2,0c0,0,0-0.1,0-0.1
				c0,0,1.2-6.7,2.6-6.7c1.4,0,2.6,1.1,2.6,2.6l-0.1,4.2c1.8,0,2.9,0,2.9,0l0-12.8C1712.7,1054.7,1709.8,1056.6,1706.8,1058.4z"/>
			<path class="st46" d="M1771.5,885.4c-4.3,2-6.9,3.4-11.7-4.9c-6.8-11.6-14.8-28.2-18-34.6c-3.3-6.4-4.6-10.6,4.7-14.6
				c5.4-2.3,10.5,3.1,13,8.4l14.3,33.8C1776.3,878.9,1775.8,883.4,1771.5,885.4L1771.5,885.4z"/>
			<polygon class="st5" points="1731.4,883.2 1731.4,883.2 1720.2,830.3 1725.8,830.4 1730.9,833.8 1734.7,830.6 1740.9,830.8 			
				"/>
			<polygon class="st49" points="1740.9,830.8 1750.5,845.8 1741.3,854.3 1749.4,857.4 1731.4,883.2 			"/>
			<polygon class="st49" points="1720.2,830.3 1710.6,845.8 1720,854.3 1716.3,857.4 1731.4,883.2 			"/>
			<path class="st27" d="M1702,807c0,12.2,9.9,22.1,22.1,22.1c12.2,0,22.1-9.9,22.1-22.1c0-12.2-9.9-22.6-22.1-22.1
				C1698.5,786,1715.7,809.5,1702,807z"/>
			<path class="st5" d="M1707.4,817l9.5,0C1717.3,821.2,1711.1,825.8,1707.4,817z"/>
			<path class="st48" d="M1714.4,780.7c11.2-3.5,19-4.8,27.1-3.2c8.7,3,15.3,11,16.1,20.8c1.1,12.8-7.6,24.6-20.3,26.4
				c0.3-1.7-0.1-3.9-0.2-5.7c-0.1-1.1-0.3-2.2-0.5-3.2c1,0.4,2,0.6,3.1,0.5c3.6-0.3,6.3-3.5,6-7.1c-0.3-3.6-3.5-6.3-7.1-6
				c-2.8,0.2-5,2.2-5.8,4.7c-0.9-2.1-2.9-3.2-5.4-4.3c-4.3-2-9.6-4.3-11.2-12.5c-9.2,1.9-7.3,7.9-9.1,8.9
				C1703.8,792.5,1706.4,783.2,1714.4,780.7z"/>
			<path class="st27" d="M1725.2,835.1c0,0,0.4,9.1,6.3,9.1c5.9,0,5.8-9.1,5.8-9.1v-4.8h-12.2V835.1z"/>
			<polygon class="st49" points="1702.6,982.6 1741,982.2 1745.5,963 1748.6,979.2 1756.2,933.9 1756.4,916.1 1705.9,916.2 			"/>
			<path class="st46" d="M1731,916.6l-8.5,7.3l-16.6-7.6c0,0,4.9-11.2,6.3-10.9c1.4,0.3,43,4.3,43,4.3l1.2,6.5l-13.6,6.7L1731,916.6
				z"/>
			<polygon class="st50" points="1750.3,883.2 1721,926.7 1755.7,912.4 			"/>
		</g>
		<path class="st46" d="M1727.1,919.4l44.7-50.4l3.7,7.4c1.9,3.9,0.9,8.6-2.4,11.4l-42.3,35L1727.1,919.4z"/>
		<path class="st27" d="M1715.5,922.5c-5.1,1.1,0.9,14.2,6,13.4c5.1-0.8,10.7-5.2,9.9-10.3c-0.8-5.1-4.2-7.2-9.3-8
			C1715.3,916.5,1720.9,921.4,1715.5,922.5z"/>
		<polygon class="st50" points="1711.6,878.4 1713,853.3 1714.4,874.7 		"/>
	</g>
</g>
</svg>
