<?xml version="1.0" encoding="utf-8"?>
<!-- Generator: Adobe Illustrator 23.0.5, SVG Export Plug-In . SVG Version: 6.00 Build 0)  -->
<svg version="1.1" id="Capa_1" xmlns="http://www.w3.org/2000/svg" xmlns:xlink="http://www.w3.org/1999/xlink" x="0px" y="0px"
	 viewBox="0 0 300 63.6" style="enable-background:new 0 0 300 63.6;" xml:space="preserve">
<style type="text/css">
	.st0{fill:#0045BA;}
	.st1{fill:#F8A901;}
	.st2{fill:none;stroke:#0045BA;stroke-width:10;stroke-miterlimit:10;}
	.st3{fill:#F5F5F5;}
	.st4{fill:#0A6EFF;}
	.st5{fill:#7FB3FF;}
	.st6{fill:none;}
	.st7{fill:none;stroke:#7A4504;stroke-width:2;stroke-linecap:round;stroke-miterlimit:10;}
	.st8{fill:#0369FF;}
</style>
<path class="st0" d="M160.1,22.7v11.6h4.6v1.4h-6.3v-13H160.1z"/>
<path class="st0" d="M170.3,25.3c1.9,0,3.2,1,3.8,2v-1.9h1.7v10.2h-1.7v-1.9c-0.6,1.1-2,2.1-3.9,2.1c-2.8,0-4.9-2.1-4.9-5.3
	C165.4,27.4,167.6,25.3,170.3,25.3z M170.7,26.8c-1.9,0-3.5,1.4-3.5,3.8c0,2.4,1.6,3.8,3.5,3.8c1.9,0,3.5-1.4,3.5-3.8
	C174.2,28.2,172.6,26.8,170.7,26.8z"/>
<path class="st0" d="M183.9,25.3c2.8,0,4.9,2,4.9,5.2c0,3.2-2.1,5.3-4.9,5.3c-1.9,0-3.2-0.9-3.9-2v1.9h-1.7V21.9h1.7v5.5
	C180.7,26.3,182.1,25.3,183.9,25.3z M183.6,26.8c-1.9,0-3.5,1.4-3.5,3.8c0,2.4,1.6,3.8,3.5,3.8c1.9,0,3.5-1.4,3.5-3.8
	C187.1,28.2,185.5,26.8,183.6,26.8z"/>
<path class="st0" d="M195.1,35.9c-2.9,0-5.1-2-5.1-5.3c0-3.2,2.3-5.2,5.2-5.2c2.9,0,5.2,2,5.2,5.2C200.4,33.8,198.1,35.9,195.1,35.9
	z M195.1,34.4c1.8,0,3.5-1.2,3.5-3.8c0-2.6-1.7-3.8-3.5-3.8c-1.8,0-3.4,1.2-3.4,3.8C191.7,33.2,193.3,34.4,195.1,34.4z"/>
<path class="st0" d="M203.9,35.7h-1.7V25.5h1.7v1.7c0.6-1.1,1.7-1.8,3.3-1.8v1.7h-0.5c-1.6,0-2.9,0.7-2.9,3.1V35.7z"/>
<path class="st0" d="M214.4,25.3c1.9,0,3.2,1,3.8,2v-1.9h1.7v10.2h-1.7v-1.9c-0.6,1.1-2,2.1-3.9,2.1c-2.8,0-4.9-2.1-4.9-5.3
	C209.5,27.4,211.6,25.3,214.4,25.3z M214.8,26.8c-1.9,0-3.5,1.4-3.5,3.8c0,2.4,1.6,3.8,3.5,3.8s3.5-1.4,3.5-3.8
	C218.3,28.2,216.6,26.8,214.8,26.8z"/>
<path class="st0" d="M222.8,26.9h-1.3v-1.4h1.3v-2.6h1.7v2.6h2.7v1.4h-2.7v6c0,1,0.4,1.4,1.4,1.4h1.3v1.4h-1.5
	c-1.8,0-2.9-0.7-2.9-2.8V26.9z"/>
<path class="st0" d="M233.3,35.9c-2.9,0-5.1-2-5.1-5.3c0-3.2,2.3-5.2,5.2-5.2c2.9,0,5.2,2,5.2,5.2C238.6,33.8,236.3,35.9,233.3,35.9
	z M233.3,34.4c1.8,0,3.5-1.2,3.5-3.8c0-2.6-1.7-3.8-3.5-3.8c-1.8,0-3.4,1.2-3.4,3.8C229.9,33.2,231.5,34.4,233.3,34.4z"/>
<path class="st0" d="M242.1,35.7h-1.7V25.5h1.7v1.7c0.6-1.1,1.7-1.8,3.3-1.8v1.7H245c-1.6,0-2.9,0.7-2.9,3.1V35.7z"/>
<path class="st0" d="M246.7,22.7c0-0.7,0.5-1.2,1.2-1.2c0.6,0,1.1,0.5,1.1,1.2c0,0.7-0.5,1.2-1.1,1.2
	C247.2,23.8,246.7,23.3,246.7,22.7z M247,25.5h1.7v10.2H247V25.5z"/>
<path class="st0" d="M255.6,35.9c-2.9,0-5.1-2-5.1-5.3c0-3.2,2.3-5.2,5.2-5.2c2.9,0,5.2,2,5.2,5.2C260.9,33.8,258.6,35.9,255.6,35.9
	z M255.6,34.4c1.8,0,3.5-1.2,3.5-3.8c0-2.6-1.7-3.8-3.5-3.8c-1.8,0-3.4,1.2-3.4,3.8C252.2,33.2,253.8,34.4,255.6,34.4z"/>
<g>
	<path class="st1" d="M159.2,42.2h3.3v13.3h-3.3V42.2z"/>
	<path class="st1" d="M168.9,44.8c1.4,0,2.6,0.6,3.3,1.6v-4.9h3.3v14h-3.3V54c-0.6,1-1.7,1.7-3.3,1.7c-2.6,0-4.7-2.1-4.7-5.4
		C164.2,46.9,166.3,44.8,168.9,44.8z M169.9,47.6c-1.2,0-2.3,0.9-2.3,2.6c0,1.7,1.1,2.6,2.3,2.6c1.2,0,2.3-0.9,2.3-2.6
		C172.2,48.5,171.1,47.6,169.9,47.6z"/>
	<path class="st1" d="M182.6,55.6c-3.1,0-5.4-2.1-5.4-5.4c0-3.3,2.2-5.4,5.4-5.4c3.1,0,5.3,2,5.3,5.3c0,0.3,0,0.6-0.1,0.9h-7.4
		c0.1,1.4,1,2,2,2c0.9,0,1.4-0.5,1.7-1h3.5C187.2,54.1,185.3,55.6,182.6,55.6z M180.5,49.2h4.1c0-1.2-0.9-1.8-2-1.8
		C181.5,47.4,180.7,48,180.5,49.2z"/>
	<path class="st1" d="M193.7,44.8c1.6,0,2.7,0.7,3.3,1.6V45h3.3v10.5H197V54c-0.6,0.9-1.7,1.6-3.3,1.6c-2.6,0-4.7-2.1-4.7-5.4
		C189,46.9,191.1,44.8,193.7,44.8z M194.7,47.6c-1.2,0-2.3,0.9-2.3,2.6c0,1.7,1.1,2.6,2.3,2.6c1.2,0,2.3-0.9,2.3-2.6
		C197,48.5,195.9,47.6,194.7,47.6z"/>
	<path class="st1" d="M207,55.6c-2.9,0-4.8-1.6-4.9-3.6h3.2c0.1,0.7,0.7,1.2,1.6,1.2c0.8,0,1.3-0.4,1.3-0.9c0-1.7-5.8-0.5-5.8-4.3
		c0-1.8,1.6-3.3,4.3-3.3c2.8,0,4.3,1.5,4.5,3.6h-3c-0.1-0.7-0.7-1.2-1.6-1.2c-0.8,0-1.2,0.3-1.2,0.8c0,1.7,5.8,0.5,5.8,4.4
		C211.4,54.3,209.7,55.6,207,55.6z"/>
	<path class="st1" d="M217.4,42.2h3.3v7.9c0,1.6,0.8,2.5,2.3,2.5s2.4-0.9,2.4-2.5v-7.9h3.3v7.9c0,3.7-2.6,5.5-5.7,5.5
		c-3.1,0-5.6-1.8-5.6-5.5V42.2z"/>
	<path class="st1" d="M234.2,55.5h-3.3V45h3.3v1.8c0.7-1.1,1.9-1.9,3.4-1.9v3.4h-0.9c-1.6,0-2.5,0.5-2.5,2.3V55.5z"/>
	<path class="st1" d="M245.7,44.8c2.6,0,4.7,2.1,4.7,5.4c0,3.3-2.1,5.4-4.7,5.4c-1.6,0-2.7-0.7-3.3-1.6v1.5h-3.3v-14h3.3v4.9
		C243,45.5,244.2,44.8,245.7,44.8z M244.7,47.6c-1.2,0-2.3,0.9-2.3,2.6c0,1.7,1.1,2.6,2.3,2.6c1.2,0,2.4-0.9,2.4-2.6
		C247.1,48.5,246,47.6,244.7,47.6z"/>
	<path class="st1" d="M256.2,44.8c1.6,0,2.7,0.7,3.3,1.6V45h3.3v10.5h-3.3V54c-0.6,0.9-1.7,1.6-3.3,1.6c-2.6,0-4.7-2.1-4.7-5.4
		C251.5,46.9,253.6,44.8,256.2,44.8z M257.1,47.6c-1.2,0-2.3,0.9-2.3,2.6c0,1.7,1.1,2.6,2.3,2.6c1.2,0,2.3-0.9,2.3-2.6
		C259.5,48.5,258.4,47.6,257.1,47.6z"/>
	<path class="st1" d="M272.5,49.8c0-1.4-0.8-2.2-2-2.2s-2,0.8-2,2.2v5.7h-3.3V45h3.3v1.4c0.7-0.9,1.8-1.5,3.2-1.5
		c2.5,0,4.1,1.7,4.1,4.5v6.2h-3.3V49.8z"/>
	<path class="st1" d="M282.1,44.8c1.6,0,2.7,0.7,3.3,1.6V45h3.3v10.5h-3.3V54c-0.6,0.9-1.7,1.6-3.3,1.6c-2.6,0-4.7-2.1-4.7-5.4
		C277.4,46.9,279.5,44.8,282.1,44.8z M283,47.6c-1.2,0-2.3,0.9-2.3,2.6c0,1.7,1.1,2.6,2.3,2.6c1.2,0,2.3-0.9,2.3-2.6
		C285.4,48.5,284.3,47.6,283,47.6z"/>
	<path class="st1" d="M295.4,55.6c-2.9,0-4.8-1.6-4.9-3.6h3.2c0.1,0.7,0.7,1.2,1.6,1.2c0.8,0,1.3-0.4,1.3-0.9c0-1.7-5.8-0.5-5.8-4.3
		c0-1.8,1.6-3.3,4.3-3.3c2.8,0,4.3,1.5,4.5,3.6h-3c-0.1-0.7-0.7-1.2-1.6-1.2c-0.8,0-1.2,0.3-1.2,0.8c0,1.7,5.8,0.5,5.8,4.4
		C299.7,54.3,298.1,55.6,295.4,55.6z"/>
</g>
<path class="st2" d="M9.2,32.9"/>
<g>
	<g>
		<g>
			<line class="st3" x1="30.6" y1="58" x2="30.6" y2="59.2"/>
		</g>
	</g>
</g>
<g>
	<g>
		<g>
			<rect x="78.3" y="15.3" class="st4" width="5.8" height="5.8"/>
		</g>
	</g>
</g>
<g>
	<g>
		<g>
			<rect x="88.3" y="40.2" class="st4" width="5.8" height="5.8"/>
		</g>
	</g>
</g>
<g>
	<g>
		<g>
			<rect x="98.5" y="47.7" class="st5" width="5.8" height="5.8"/>
		</g>
	</g>
</g>
<g>
	<g>
		<g>
			<g>
				<polygon class="st6" points="90.8,31.4 84.8,28.7 90.8,31.4 				"/>
			</g>
		</g>
	</g>
	<g>
		<g>
			<g>
				<polygon class="st6" points="106.4,38.4 99.4,35.3 95.7,33.6 106.4,38.4 				"/>
			</g>
		</g>
	</g>
</g>
<g>
	<rect x="66.7" y="8.8" class="st0" width="5.8" height="5.8"/>
	<rect x="67.6" y="23.4" class="st0" width="5.8" height="5.8"/>
</g>
<g>
	<g>
		<g>
			<path class="st7" d="M23.6,61.5"/>
		</g>
	</g>
</g>
<g>
	<path class="st5" d="M111,25.2c-1.8,0-3.3,1.4-3.3,3.2c0,1.8,1.5,3.2,3.3,3.2c1.8,0,3.3-1.4,3.3-3.2
		C114.3,26.6,112.8,25.2,111,25.2z"/>
	<path class="st5" d="M122.2,16.6c-2.1-1.9-4.3-3.2-6.6-4c-1.9-0.6-3.9-0.8-5.9-0.6c-2.9,0.3-5.8,1.5-8.3,3.3
		c-0.6,0.4-1.1,0.8-1.6,1.3c-0.4,0.3-0.6,0.8-0.5,1.4c0,0.5,0.2,0.9,0.6,1.3c0.8,0.7,1.9,0.7,2.6,0h0c0.1-0.1,0.2-0.1,0.2-0.2
		c0.1-0.1,0.2-0.2,0.3-0.3l0.7-0.5c0.2-0.1,0.4-0.3,0.6-0.4c0.5-0.3,1-0.6,1.5-0.9c0.3-0.1,0.5-0.3,0.8-0.4l0.2-0.1
		c0.2-0.1,0.3-0.1,0.5-0.2c0.7-0.2,1.4-0.4,2.1-0.6l0.2,0c0.2,0,0.4,0,0.6-0.1c0.4,0,0.8,0,1.2,0c0.2,0,0.4,0,0.6,0l0.4,0
		c0.4,0.1,0.8,0.1,1.2,0.2c0.5,0.1,1,0.3,1.6,0.5l0.2,0.1c0.1,0,0.2,0.1,0.3,0.1c0.2,0.1,0.5,0.2,0.7,0.4c0.5,0.3,1.1,0.6,1.6,1
		l0.2,0.1c0,0,0.1,0.1,0.1,0.1c0.1,0,0.1,0.1,0.2,0.1l0.1,0.1c0.3,0.2,0.6,0.5,0.8,0.7c0.4,0.3,0.8,0.5,1.3,0.5
		c0.5,0,0.9-0.2,1.3-0.5c0.4-0.4,0.5-0.9,0.5-1.4C122.7,17.4,122.5,16.9,122.2,16.6z"/>
	<path class="st5" d="M110,18.5c-2,0.2-3.9,1.1-5.6,2.4c-0.3,0.2-0.6,0.5-0.8,0.8c-0.6,0.7-0.8,1.9,0,2.6c0.4,0.3,0.9,0.5,1.4,0.5
		c0.5,0,0.9-0.2,1.2-0.5c0.2-0.2,0.3-0.3,0.5-0.5c0.1-0.1,0.2-0.1,0.3-0.2l0.1-0.1c0.3-0.2,0.6-0.4,0.9-0.5c0.2-0.1,0.3-0.2,0.5-0.3
		l0.3-0.1c0.4-0.1,0.8-0.3,1.2-0.3l0.1,0c0,0,0.2,0,0.2,0c0.3,0,0.5,0,0.8,0c0.1,0,0.2,0,0.4,0c0.1,0,0.2,0,0.2,0l0.3,0.1
		c0.1,0,0.2,0,0.3,0.1c0.2,0,0.3,0.1,0.5,0.2c0.1,0,0.2,0.1,0.3,0.1c0,0,0.1,0,0.1,0c0.1,0,0.2,0.1,0.2,0.1c0.1,0.1,0.3,0.1,0.4,0.2
		c0.3,0.2,0.7,0.4,1,0.6c0,0,0.1,0.1,0.1,0.1c0.1,0,0.1,0.1,0.2,0.2c0.2,0.1,0.4,0.3,0.5,0.5c0.4,0.3,0.9,0.5,1.3,0.5
		c0.5,0,1-0.2,1.3-0.5c0.4-0.4,0.5-0.9,0.5-1.4c0-0.5-0.2-0.9-0.6-1.2C115.7,19.3,112.7,18.2,110,18.5z"/>
</g>
<g>
	<path class="st6" d="M53.9,36.6C53.9,36.6,53.9,36.6,53.9,36.6C53.9,36.6,53.9,36.6,53.9,36.6c0.2,0,0.6,0,1.1,0v-1.8v-0.1v-1.9h0
		c0-0.5-0.5-1-1-1s-1,0.4-1,1h0v1.9v0.1v1.8C53,36.6,53.3,36.6,53.9,36.6C53.9,36.6,53.9,36.6,53.9,36.6z"/>
	<path class="st6" d="M43.9,32.2C43.9,32.2,43.9,32.2,43.9,32.2l0-1.6v-0.1v-1.6c0-0.5-0.4-0.8-0.9-0.8s-0.9,0.4-0.9,0.8v1.6v0.1
		v1.6c0,0,0.3,0,0.8,0C43,32.2,43.5,32.2,43.9,32.2z"/>
	<path class="st6" d="M58.4,40.4c-1.4-0.5-2.9-0.7-4.5-0.7c-7,0-12.8,5.3-13.5,12.1h26.9c-0.4-4.1-2.6-7.6-5.9-9.8
		C60.5,41.3,59.5,40.7,58.4,40.4z"/>
	<path class="st0" d="M27.6,56.2v3h3V58v-9.5c0,0,0,0,0,0c0-7.4,6.1-13.3,13.5-13.3c1.6,0,3.1,0.3,4.5,0.7v-3.2
		c-0.7-0.2-1.5-0.3-2.2-0.5v-4c0-1.3-0.8-2.5-2-3v-1.5h0v-1.8H46v-2.6h-1.6v-1.3h-2.7v1.3h-1.6v2.6h1.6v1.8h0v1.5
		c-1.2,0.5-2.1,1.6-2.1,3v4.5c-7,1.9-12.1,8.2-12.1,15.8c0,0.3,0,0.7,0,1V56.2z M42.2,30.6L42.2,30.6v-1.7c0-0.5,0.4-0.8,0.9-0.8
		s0.9,0.4,0.9,0.8v1.6v0.1v1.6c0,0,0,0,0,0c-0.4,0-0.9,0-0.9,0c-0.5,0-0.8,0-0.8,0V30.6z"/>
	<path class="st0" d="M112.5,60.6V37.9l-9.1-4.1v0l-3.1-1.4v0l-6.4-2.9V0H58.4v37.2c-0.2-0.1-0.4-0.1-0.6-0.1v-4.9
		c0-1.6-1-2.9-2.4-3.5v-1.9h0v-2.1h1.8v-2.8h-1.8v-1.5h-2.9v1.5h-1.8v2.8h1.8v4C51,29.2,50,30.6,50,32.1v4.9
		c-7.3,1.7-12.7,8.2-12.7,15.9c0,0.3,0,0.7,0,1l0.4,6.6H25H8.6H7.6h0v3h32.8v-1.2v-7.8h27.1V56v4.6v1.8v1.2h3V53c0,0,0,0,0,0
		c0,0,0,0,0,0c0-6.3-3.7-11.8-9-14.5V3h29.3v25L81.7,24v39.7h3.1v-3V28.7l6,2.7v0l4.9,2.2l3.8,1.7l6.9,3.1l0,0l3,1.4v20.8v0v3h3.1
		L112.5,60.6L112.5,60.6L112.5,60.6z M53,34.8L53,34.8v-2h0c0-0.5,0.5-1,1-1s1,0.4,1,1h0v1.9v0.1v1.8c-0.4,0-0.9,0-1,0c0,0,0,0,0,0
		c0,0,0,0,0,0c0,0,0,0,0,0c-0.6,0-0.9,0-0.9,0V34.8z M67.4,51.7H40.5c0.7-6.8,6.4-12.1,13.5-12.1c1.6,0,3.1,0.3,4.5,0.7
		c1.1,0.4,2.1,0.9,3.1,1.5C64.7,44,67,47.6,67.4,51.7z"/>
</g>
<path class="st0" d="M16.8,61V48.1c0.7,0.3,1.4,0.5,2.1,0.7c0.4,0.1,0.8,0.1,1.2,0.1c0,0,0,0,0,0c3.7,0,6.8-2.6,7.4-6.3
	c0.2-1.3,0.1-2.7-0.4-3.9c1.3-1.1,2.1-2.5,2.4-4.2c0.3-1.8-0.1-3.7-1.2-5.2c-1.1-1.5-2.7-2.5-4.6-2.8c-0.2,0-0.4-0.1-0.6-0.1
	c0.1-4-2.9-7.5-6.9-8.1c-0.4-0.1-0.9-0.1-1.3-0.1c-4.1,0-7.5,2.9-8.2,6.8c-0.1,0.3-0.1,0.6-0.1,1c-1.7,0.9-2.9,2.6-3.3,4.6
	c-0.1,0.6-0.1,1.3,0,1.9c-1.5,1-2.6,2.6-2.9,4.3c-0.5,2.9,1.1,5.7,3.7,6.9c0.2,2.9,2.4,5.3,5.4,5.8c0.3,0.1,0.7,0.1,1.1,0.1
	c1.1,0,2.2-0.3,3.1-0.8V61 M10.6,46.7c-0.2,0-0.4,0-0.6,0c-1.8-0.3-3.1-2-2.9-3.8c0.1-0.7-0.4-1.4-1.1-1.6c-1.8-0.4-2.9-2.1-2.6-3.9
	c0.2-1.2,1-2.2,2.2-2.7c0.7-0.3,1.1-1.1,0.9-1.9c-0.2-0.5-0.2-1.1-0.1-1.7c0.2-1.3,1.1-2.3,2.3-2.7c0.7-0.2,1.1-0.9,1-1.5
	c0-0.4,0-0.9,0-1.3c0.4-2.5,2.6-4.4,5.2-4.4c0.3,0,0.6,0,0.9,0.1c2.9,0.5,4.8,3.1,4.3,6c0,0.2-0.1,0.3-0.1,0.5c-0.1,0.5,0,1,0.4,1.4
	c0.4,0.4,0.9,0.5,1.4,0.4c0.5-0.1,1-0.1,1.5,0c2.2,0.3,3.7,2.4,3.3,4.5c-0.2,1.2-1,2.3-2.1,2.9c-0.4,0.2-0.6,0.5-0.7,0.9
	c-0.1,0.4,0,0.8,0.2,1.2c0.6,0.9,0.8,2,0.7,3.1c-0.4,2.2-2.2,3.8-4.5,3.8c-0.2,0-0.5,0-0.7-0.1c-1.2-0.2-2.2-0.8-2.9-1.7
	c-0.3-0.4-0.9-0.6-1.4-0.6c-0.5,0.1-1,0.4-1.2,0.9C13.3,45.8,12,46.7,10.6,46.7z"/>
<path class="st4" d="M15,43.6c0.5-0.1,1.1,0.1,1.4,0.6c0.7,0.9,1.8,1.5,2.9,1.7c0.2,0,0.5,0.1,0.7,0.1c2.3,0,4.2-1.6,4.5-3.8
	c0.2-1.1-0.1-2.2-0.7-3.2c-0.2-0.4-0.3-0.8-0.2-1.2c0.1-0.4,0.4-0.7,0.8-0.9c1.1-0.6,1.9-1.6,2.1-2.9c0.4-2.2-1.1-4.2-3.4-4.5
	c-0.5-0.1-1-0.1-1.5,0c-0.5,0.1-1.1,0-1.4-0.4c-0.4-0.4-0.5-0.9-0.4-1.4c0-0.2,0.1-0.3,0.1-0.5c0.5-2.8-1.5-5.5-4.4-6
	c-0.3,0-0.6-0.1-0.9-0.1c-2.6,0-4.8,1.8-5.3,4.4c-0.1,0.4-0.1,0.9,0,1.3c0.1,0.7-0.4,1.3-1,1.5c-1.2,0.4-2.1,1.5-2.4,2.7
	c-0.1,0.6,0,1.1,0.1,1.7c0.3,0.8-0.1,1.6-0.9,1.9c-1.2,0.5-2,1.5-2.2,2.7c-0.3,1.8,0.9,3.5,2.6,3.9c0.7,0.2,1.2,0.9,1.2,1.6
	c-0.2,1.8,1.1,3.5,3,3.8c0.2,0,0.4,0,0.6,0c1.4,0,2.8-0.9,3.3-2.2C14,44,14.5,43.7,15,43.6z"/>
<g>
	<path class="st8" d="M142.3,43.8c2,0,3.6-1.6,3.6-3.6c0-2-1.6-3.6-3.6-3.6s-3.6,1.6-3.6,3.6C138.7,42.2,140.3,43.8,142.3,43.8z
		 M141.6,40.2c0-0.4,0.3-0.7,0.7-0.7c0.4,0,0.7,0.3,0.7,0.7c0,0.4-0.3,0.7-0.7,0.7C141.9,40.9,141.6,40.6,141.6,40.2z"/>
	<path class="st8" d="M146,51.1v-5.8h-7.3v18.3h2.9v-3.3h1.5v3.3h2.9v-3.3h2.3L146,51.1z M141.6,48.2h1.5v3.2l1.5,6h-3V48.2z"/>
</g>
<g>
	<path class="st8" d="M119.9,43.8c2,0,3.6-1.6,3.6-3.6c0-2-1.6-3.6-3.6-3.6c-2,0-3.6,1.6-3.6,3.6C116.2,42.2,117.9,43.8,119.9,43.8z
		 M119.1,40.2c0-0.4,0.3-0.7,0.7-0.7c0.4,0,0.7,0.3,0.7,0.7c0,0.4-0.3,0.7-0.7,0.7C119.5,40.9,119.1,40.6,119.1,40.2z"/>
	<path class="st8" d="M116.2,63.6h2.9V57h1.5v6.6h2.9V45.3h-7.3V63.6z M120.6,48.2v5.9h-1.5v-5.9H120.6z"/>
</g>
<g>
	<path class="st0" d="M131,48.2c2,0,3.6-1.6,3.6-3.6c0-2-1.6-3.6-3.6-3.6s-3.6,1.6-3.6,3.6C127.3,46.6,128.9,48.2,131,48.2z
		 M130.2,44.6c0-0.4,0.3-0.7,0.7-0.7c0,0,0,0,0,0c0.2,0,0.4,0.1,0.5,0.2c0.1,0.1,0.2,0.3,0.2,0.5c0,0.4-0.3,0.7-0.7,0.7
		S130.2,45,130.2,44.6z"/>
	<path class="st0" d="M127.3,63.6h2.9v-4.4h1.5v4.4h2.9V49.7h-7.3V63.6z M131.7,52.6v3.7h-1.5v-3.7H131.7z"/>
</g>
</svg>
