<?xml version="1.0" encoding="utf-8"?>
<!-- Generator: Adobe Illustrator 23.0.5, SVG Export Plug-In . SVG Version: 6.00 Build 0)  -->
<svg version="1.1" id="Capa_1" xmlns="http://www.w3.org/2000/svg" xmlns:xlink="http://www.w3.org/1999/xlink" x="0px" y="0px"
	 viewBox="0 0 266.2 58" style="enable-background:new 0 0 266.2 58;" xml:space="preserve">
<style type="text/css">
	.st0{fill:#0045BA;}
	.st1{fill:#F8A901;}
	.st2{fill:none;stroke:#0045BA;stroke-width:10;stroke-miterlimit:10;}
	.st3{fill:none;}
	.st4{fill:#0A6EFF;}
	.st5{fill:#7FB3FF;}
	.st6{fill:none;stroke:#7A4504;stroke-width:2;stroke-linecap:round;stroke-miterlimit:10;}
	.st7{fill:#0369FF;}
</style>
<g>
	<path class="st0" d="M142.1,20.9V31h4v1.2h-5.5V20.9H142.1z"/>
	<path class="st0" d="M151,23.2c1.7,0,2.8,0.8,3.4,1.8v-1.6h1.5v8.9h-1.5v-1.7c-0.5,1-1.7,1.8-3.4,1.8c-2.4,0-4.3-1.9-4.3-4.6
		C146.7,25,148.6,23.2,151,23.2z M151.3,24.5c-1.6,0-3,1.2-3,3.3s1.4,3.3,3,3.3s3.1-1.2,3.1-3.3C154.3,25.7,152.9,24.5,151.3,24.5z"
		/>
	<path class="st0" d="M162.9,23.2c2.4,0,4.3,1.8,4.3,4.6s-1.9,4.6-4.3,4.6c-1.6,0-2.8-0.8-3.4-1.8v1.6H158v-12h1.5V25
		C160.1,24,161.3,23.2,162.9,23.2z M162.5,24.5c-1.6,0-3.1,1.2-3.1,3.3s1.4,3.3,3.1,3.3c1.7,0,3.1-1.2,3.1-3.3
		C165.6,25.7,164.2,24.5,162.5,24.5z"/>
	<path class="st0" d="M172.6,32.4c-2.6,0-4.5-1.8-4.5-4.6s2-4.6,4.6-4.6s4.6,1.8,4.6,4.6C177.3,30.6,175.2,32.4,172.6,32.4z
		 M172.6,31.1c1.6,0,3.1-1.1,3.1-3.3s-1.5-3.3-3-3.3c-1.6,0-3,1.1-3,3.3S171.1,31.1,172.6,31.1z"/>
	<path class="st0" d="M180.3,32.3h-1.5v-8.9h1.5v1.4c0.5-1,1.5-1.6,2.9-1.6v1.5h-0.4c-1.4,0-2.5,0.6-2.5,2.7V32.3z"/>
	<path class="st0" d="M189.5,23.2c1.7,0,2.8,0.8,3.4,1.8v-1.6h1.5v8.9h-1.5v-1.7c-0.5,1-1.7,1.8-3.4,1.8c-2.4,0-4.3-1.9-4.3-4.6
		C185.2,25,187.1,23.2,189.5,23.2z M189.8,24.5c-1.6,0-3,1.2-3,3.3s1.4,3.3,3,3.3s3.1-1.2,3.1-3.3C192.8,25.7,191.4,24.5,189.8,24.5
		z"/>
	<path class="st0" d="M196.8,24.6h-1.2v-1.2h1.2v-2.2h1.5v2.2h2.4v1.2h-2.4v5.2c0,0.9,0.3,1.2,1.3,1.2h1.1v1.3h-1.3
		c-1.6,0-2.5-0.6-2.5-2.4v-5.3H196.8z"/>
	<path class="st0" d="M206,32.4c-2.6,0-4.5-1.8-4.5-4.6s2-4.6,4.6-4.6s4.6,1.8,4.6,4.6C210.6,30.6,208.6,32.4,206,32.4z M206,31.1
		c1.6,0,3.1-1.1,3.1-3.3s-1.5-3.3-3-3.3c-1.6,0-3,1.1-3,3.3C203,30,204.4,31.1,206,31.1z"/>
	<path class="st0" d="M213.7,32.3h-1.5v-8.9h1.5v1.4c0.5-1,1.5-1.6,2.9-1.6v1.5h-0.4c-1.4,0-2.5,0.6-2.5,2.7V32.3z"/>
	<path class="st0" d="M217.7,20.9c0-0.6,0.4-1,1-1c0.5,0,1,0.4,1,1s-0.4,1-1,1S217.7,21.5,217.7,20.9z M217.9,23.4h1.5v8.9h-1.5
		V23.4z"/>
	<path class="st0" d="M225.5,32.4c-2.6,0-4.5-1.8-4.5-4.6s2-4.6,4.6-4.6s4.6,1.8,4.6,4.6C230.1,30.6,228,32.4,225.5,32.4z
		 M225.5,31.1c1.6,0,3.1-1.1,3.1-3.3s-1.5-3.3-3-3.3c-1.6,0-3,1.1-3,3.3C222.5,30,223.9,31.1,225.5,31.1z"/>
</g>
<g>
	<path class="st1" d="M141.9,38h2.9v11.6h-2.9V38z"/>
	<path class="st1" d="M150.4,40.2c1.2,0,2.3,0.6,2.9,1.4v-4.3h2.9v12.2h-2.9v-1.3c-0.5,0.8-1.5,1.5-2.9,1.5c-2.3,0-4.1-1.8-4.1-4.8
		S148.1,40.2,150.4,40.2z M151.2,42.7c-1.1,0-2,0.8-2,2.3s1,2.3,2,2.3c1.1,0,2-0.8,2-2.3C153.3,43.5,152.3,42.7,151.2,42.7z"/>
	<path class="st1" d="M162.3,49.7c-2.7,0-4.7-1.8-4.7-4.7c0-2.9,1.9-4.7,4.7-4.7c2.7,0,4.6,1.8,4.6,4.6c0,0.3,0,0.5-0.1,0.8h-6.5
		c0.1,1.2,0.9,1.8,1.8,1.8c0.8,0,1.3-0.4,1.5-0.9h3C166.3,48.3,164.7,49.7,162.3,49.7z M160.5,44.1h3.6c0-1-0.8-1.6-1.8-1.6
		C161.4,42.5,160.6,43,160.5,44.1z"/>
	<path class="st1" d="M172,40.2c1.4,0,2.4,0.6,2.9,1.4v-1.3h2.9v9.2h-2.9v-1.3c-0.5,0.8-1.5,1.4-2.9,1.4c-2.3,0-4.1-1.8-4.1-4.8
		S169.7,40.2,172,40.2z M172.9,42.7c-1.1,0-2,0.8-2,2.3s1,2.3,2,2.3c1.1,0,2-0.8,2-2.3S174,42.7,172.9,42.7z"/>
	<path class="st1" d="M183.6,49.7c-2.5,0-4.2-1.4-4.3-3.2h2.8c0.1,0.6,0.7,1.1,1.4,1.1s1.1-0.3,1.1-0.7c0-1.5-5.1-0.4-5.1-3.8
		c0-1.6,1.4-2.9,3.8-2.9c2.4,0,3.7,1.3,3.9,3.1h-2.6c-0.1-0.6-0.6-1-1.4-1c-0.7,0-1,0.3-1,0.7c0,1.5,5,0.4,5.1,3.9
		C187.4,48.5,186,49.7,183.6,49.7z"/>
	<path class="st1" d="M192.7,38h2.9v6.9c0,1.4,0.7,2.2,2,2.2c1.4,0,2.1-0.8,2.1-2.2V38h2.9v6.9c0,3.2-2.3,4.8-5,4.8
		s-4.8-1.6-4.8-4.8L192.7,38L192.7,38z"/>
	<path class="st1" d="M207.4,49.5h-2.9v-9.2h2.9v1.5c0.7-1,1.7-1.6,2.9-1.6v3h-0.8c-1.4,0-2.1,0.5-2.1,2L207.4,49.5L207.4,49.5z"/>
	<path class="st1" d="M217.4,40.2c2.3,0,4.1,1.8,4.1,4.7s-1.8,4.8-4.1,4.8c-1.4,0-2.4-0.6-2.9-1.4v1.3h-2.9V37.3h2.9v4.3
		C215,40.8,216.1,40.2,217.4,40.2z M216.5,42.7c-1.1,0-2,0.8-2,2.3s1,2.3,2,2.3c1.1,0,2.1-0.8,2.1-2.3
		C218.6,43.5,217.6,42.7,216.5,42.7z"/>
	<path class="st1" d="M226.6,40.2c1.4,0,2.4,0.6,2.9,1.4v-1.3h2.9v9.2h-2.9v-1.3c-0.5,0.8-1.5,1.4-2.9,1.4c-2.3,0-4.1-1.8-4.1-4.8
		S224.3,40.2,226.6,40.2z M227.4,42.7c-1.1,0-2,0.8-2,2.3s1,2.3,2,2.3c1.1,0,2-0.8,2-2.3S228.5,42.7,227.4,42.7z"/>
	<path class="st1" d="M240.8,44.5c0-1.3-0.7-1.9-1.8-1.9s-1.8,0.7-1.8,1.9v5h-2.9v-9.2h2.9v1.3c0.6-0.8,1.6-1.3,2.8-1.3
		c2.2,0,3.6,1.5,3.6,3.9v5.4h-2.8V44.5z"/>
	<path class="st1" d="M249.2,40.2c1.4,0,2.4,0.6,2.9,1.4v-1.3h2.9v9.2h-2.9v-1.3c-0.5,0.8-1.5,1.4-2.9,1.4c-2.3,0-4.1-1.8-4.1-4.8
		S246.9,40.2,249.2,40.2z M250,42.7c-1.1,0-2,0.8-2,2.3s1,2.3,2,2.3c1.1,0,2-0.8,2-2.3C252.1,43.5,251.1,42.7,250,42.7z"/>
	<path class="st1" d="M260.8,49.7c-2.5,0-4.2-1.4-4.3-3.2h2.8c0.1,0.6,0.7,1.1,1.4,1.1c0.7,0,1.1-0.3,1.1-0.7c0-1.5-5.1-0.4-5.1-3.8
		c0-1.6,1.4-2.9,3.8-2.9s3.7,1.3,3.9,3.1h-2.5c-0.1-0.6-0.6-1-1.4-1c-0.7,0-1,0.3-1,0.7c0,1.5,5,0.4,5.1,3.9
		C264.6,48.5,263.1,49.7,260.8,49.7z"/>
</g>
<path class="st2" d="M8.5,29.8"/>
<g>
	<g>
		<g>
			<line class="st3" x1="27.2" y1="51.7" x2="27.2" y2="52.8"/>
		</g>
	</g>
</g>
<g>
	<g>
		<g>
			<rect x="68.8" y="14.5" class="st4" width="5.1" height="5"/>
		</g>
	</g>
</g>
<g>
	<g>
		<g>
			<rect x="77.6" y="36.2" class="st4" width="5.1" height="5"/>
		</g>
	</g>
</g>
<g>
	<g>
		<g>
			<rect x="86.4" y="42.7" class="st5" width="5.1" height="5"/>
		</g>
	</g>
</g>
<g>
	<g>
		<g>
			<g>
				<path class="st3" d="M79.7,28.5l-5.2-2.4L79.7,28.5z"/>
			</g>
		</g>
	</g>
	<g>
		<g>
			<g>
				<polygon class="st3" points="93.3,34.6 87.2,31.9 84,30.4 				"/>
			</g>
		</g>
	</g>
</g>
<rect x="58.6" y="8.8" class="st0" width="5.1" height="5"/>
<rect x="58.9" y="21.5" class="st0" width="5.1" height="5"/>
<g>
	<g>
		<g>
			<path class="st6" d="M21,54.7"/>
		</g>
	</g>
</g>
<g>
	<ellipse class="st5" cx="97.4" cy="25.9" rx="2.9" ry="2.9"/>
	<path class="st5" d="M107.2,15.6c-1.8-1.7-3.8-2.8-5.8-3.5c-1.7-0.5-3.4-0.7-5.2-0.5c-2.6,0.3-5.1,1.3-7.3,2.9
		c-0.5,0.4-1,0.7-1.4,1.2C87.2,16,87,16.5,87,16.9c0,0.5,0.2,0.9,0.5,1.1c0.7,0.6,1.7,0.6,2.4,0l0,0c0.1-0.1,0.1-0.1,0.2-0.2
		c0.1-0.1,0.2-0.2,0.3-0.2l0.3-0.3c0.1-0.1,0.2-0.1,0.2-0.2c0.2-0.1,0.4-0.2,0.5-0.4c0.4-0.3,0.9-0.5,1.3-0.8
		c0.2-0.1,0.5-0.2,0.7-0.3l0.2-0.1c0.1-0.1,0.3-0.1,0.4-0.2c0.6-0.2,1.2-0.4,1.9-0.5h0.2l0,0c0.2,0,0.3,0,0.5,0c0.3,0,0.7,0,1,0
		c0.2,0,0.4,0,0.5,0s0.2,0,0.2,0h0.1c0.4,0.1,0.7,0.1,1.1,0.2c0.4,0.1,0.9,0.3,1.3,0.4h0.1l0,0l0,0l0,0c0.1,0.1,0.2,0.1,0.3,0.2
		c0.2,0.1,0.4,0.2,0.6,0.3c0.5,0.3,0.9,0.6,1.4,0.9l0.2,0.1l0.1,0.1c0.1,0,0.1,0.1,0.1,0.1l0.1,0.1c0.2,0.2,0.5,0.4,0.7,0.6
		c0.3,0.3,0.8,0.5,1.2,0.5c0.4,0,0.8-0.1,1.2-0.5c0.3-0.3,0.5-0.8,0.5-1.3C107.7,16.2,107.5,15.8,107.2,15.6z"/>
	<path class="st5" d="M96.4,17.2c-1.8,0.2-3.4,0.9-4.9,2.1c-0.2,0.2-0.5,0.4-0.7,0.7c-0.6,0.6-0.7,1.7,0,2.4
		c0.3,0.3,0.8,0.5,1.3,0.5c0.4,0,0.8-0.2,1.1-0.5c0.1-0.2,0.3-0.3,0.5-0.4c0.1-0.1,0.1-0.1,0.2-0.2l0.1-0.1c0.2-0.2,0.5-0.3,0.7-0.5
		c0.1-0.1,0.3-0.2,0.4-0.2l0.3-0.1c0.3-0.1,0.7-0.2,1.1-0.3l0,0l0,0c0,0,0.1,0,0.2,0c0.2,0,0.4,0,0.7,0c0.1,0,0.2,0,0.3,0
		c0,0,0.1,0,0.2,0h0.3c0.1,0,0.2,0,0.3,0.1c0.1,0,0.3,0.1,0.4,0.1s0.2,0.1,0.3,0.1h0.1c0.1,0,0.1,0.1,0.2,0.1
		c0.1,0.1,0.2,0.1,0.4,0.2c0.3,0.2,0.6,0.4,0.9,0.6c0,0,0.1,0,0.1,0.1L101,22h0.1c0.2,0.1,0.3,0.3,0.5,0.4c0.3,0.3,0.8,0.5,1.2,0.5
		c0.4,0,0.9-0.2,1.2-0.5c0.3-0.3,0.5-0.8,0.5-1.3c0-0.4-0.2-0.8-0.5-1.1C101.5,17.9,98.9,16.9,96.4,17.2z"/>
</g>
<path class="st0" d="M15.1,54.3V43.1c0.6,0.3,1.2,0.5,1.8,0.6c0.4,0.1,0.7,0.1,1.1,0.1l0,0c3.2,0,6-2.3,6.5-5.5
	c0.2-1.2,0.1-2.4-0.4-3.4c1.1-0.9,1.9-2.2,2.1-3.6c0.3-1.6-0.1-3.2-1.1-4.5s-2.4-2.2-4-2.4c-0.2,0-0.3,0-0.5-0.1
	c0-3.5-2.5-6.5-6.1-7.1c-0.4-0.1-0.8-0.1-1.2-0.1c-3.6,0-6.5,2.5-7.1,6c0,0.3-0.1,0.6-0.1,0.8c-1.5,0.8-2.6,2.3-2.9,4
	c-0.1,0.5-0.1,1.1,0,1.6c-1.3,0.9-2.2,2.2-2.5,3.8c-0.4,2.5,1,5,3.2,6C4.1,41.8,6,44,8.7,44.4c0.3,0,0.6,0.1,0.9,0.1
	c1,0,1.9-0.3,2.7-0.7v10.6 M9.7,41.8c-0.2,0-0.3,0-0.5,0c-1.6-0.3-2.7-1.7-2.6-3.3c0.1-0.6-0.4-1.2-1-1.4c-1.5-0.4-2.5-1.9-2.3-3.4
	c0.2-1.1,0.9-1.9,1.9-2.3c0.7-0.3,1-1,0.8-1.6c-0.2-0.5-0.2-1-0.1-1.5c0.2-1.1,1-2,2-2.4c0.6-0.2,0.9-0.7,0.9-1.3c0-0.4,0-0.8,0-1.1
	c0.4-2.2,2.3-3.8,4.5-3.8c0.2,0,0.5,0,0.7,0.1c2.5,0.4,4.2,2.7,3.8,5.2c0,0.1-0.1,0.3-0.1,0.4c-0.1,0.4,0,0.9,0.3,1.2
	s0.8,0.5,1.2,0.4c0.4-0.1,0.9-0.1,1.3,0c1.9,0.3,3.2,2.1,2.9,4c-0.2,1.1-0.8,2-1.8,2.5c-0.3,0.2-0.6,0.5-0.7,0.8
	c-0.1,0.4,0,0.7,0.2,1c0.5,0.8,0.7,1.8,0.6,2.7c-0.3,1.9-2,3.3-3.9,3.3c-0.2,0-0.4,0-0.6-0.1c-1-0.2-1.9-0.7-2.5-1.5
	c-0.3-0.4-0.8-0.6-1.2-0.5c-0.5,0.1-0.9,0.4-1,0.8C12.1,41.1,10.9,41.8,9.7,41.8z"/>
<path class="st4" d="M13.6,39.3c0.5-0.1,1,0.1,1.2,0.5c0.6,0.8,1.5,1.3,2.6,1.5c0.2,0,0.4,0.1,0.7,0.1c2,0,3.7-1.4,4-3.3
	c0.2-1,0-1.9-0.6-2.8c-0.2-0.3-0.3-0.7-0.2-1c0.1-0.4,0.3-0.7,0.7-0.8c1-0.5,1.7-1.4,1.8-2.5c0.3-1.9-1-3.7-2.9-4
	c-0.4-0.1-0.9-0.1-1.3,0c-0.5,0.1-0.9,0-1.3-0.4c-0.3-0.3-0.4-0.8-0.3-1.2c0-0.1,0.1-0.3,0.1-0.4c0.4-2.5-1.3-4.8-3.9-5.2
	c-0.3,0-0.5-0.1-0.8-0.1c-2.3,0-4.2,1.6-4.6,3.8c-0.1,0.4-0.1,0.8,0,1.1c0.1,0.6-0.3,1.2-0.9,1.3c-1.1,0.4-1.9,1.3-2.1,2.4
	c-0.1,0.5,0,1,0.1,1.5c0.2,0.7-0.1,1.4-0.8,1.6c-1,0.4-1.7,1.3-1.9,2.3c-0.3,1.5,0.8,3,2.3,3.4c0.6,0.2,1.1,0.8,1,1.4
	c-0.2,1.6,1,3,2.6,3.3c0.2,0,0.3,0,0.5,0c1.3,0,2.4-0.8,2.9-1.9C12.7,39.7,13.2,39.4,13.6,39.3z"/>
<g>
	<g>
		<g>
			<g>
				<path class="st7" d="M124.7,33.3c-1.6,0-2.9,1.3-2.9,2.9s1.3,2.9,2.9,2.9s2.9-1.3,2.9-2.9S126.3,33.3,124.7,33.3z M124.7,37.1
					c-0.5,0-1-0.4-1-1c0-0.5,0.4-1,1-1c0.5,0,1,0.4,1,1S125.2,37.1,124.7,37.1z"/>
			</g>
		</g>
		<g>
			<g>
				<path class="st7" d="M124.7,39.4c-1.8,0-3.2-1.4-3.2-3.2c0-1.8,1.4-3.2,3.2-3.2s3.2,1.4,3.2,3.2
					C127.9,37.9,126.5,39.4,124.7,39.4z M124.7,33.6c-1.4,0-2.6,1.2-2.6,2.6s1.2,2.6,2.6,2.6s2.6-1.2,2.6-2.6S126.1,33.6,124.7,33.6
					z M124.7,37.5c-0.7,0-1.3-0.6-1.3-1.3s0.6-1.3,1.3-1.3s1.3,0.6,1.3,1.3S125.4,37.5,124.7,37.5z M124.7,35.5
					c-0.4,0-0.7,0.3-0.7,0.7s0.3,0.7,0.7,0.7s0.7-0.3,0.7-0.7S125.1,35.5,124.7,35.5z"/>
			</g>
		</g>
	</g>
	<g>
		<g>
			<g>
				<path class="st7" d="M127.6,41h-5.8v12.5v2.9h1.9v-2.9h1.9v2.9h1.9v-2.9h1.9l-1.9-7.7V41H127.6z M123.7,51.5v-8.6h1.9V46
					l1.4,5.5H123.7z"/>
			</g>
		</g>
		<g>
			<g>
				<path class="st7" d="M127.9,56.6h-2.5v-2.9h-1.3v2.9h-2.5v-16h6.4v5.1l2,8h-2L127.9,56.6L127.9,56.6z M126,56h1.3v-2.9h1.8
					l-1.8-7.4v-4.5h-5.1v14.7h1.3V53h2.5V56z M127.4,51.8h-4v-9.2h2.5V46L127.4,51.8z M124,51.2h2.6l-1.3-5.2v-2.8H124V51.2z"/>
			</g>
		</g>
	</g>
</g>
<g>
	<g>
		<g>
			<g>
				<path class="st7" d="M105.1,33.3c-1.6,0-2.9,1.3-2.9,2.9s1.3,2.9,2.9,2.9s2.9-1.3,2.9-2.9S106.7,33.3,105.1,33.3z M105.1,37.1
					c-0.5,0-1-0.4-1-1c0-0.5,0.4-1,1-1s1,0.4,1,1S105.6,37.1,105.1,37.1z"/>
			</g>
		</g>
		<g>
			<g>
				<path class="st7" d="M105.1,39.4c-1.8,0-3.2-1.4-3.2-3.2c0-1.8,1.4-3.2,3.2-3.2s3.2,1.4,3.2,3.2
					C108.3,37.9,106.9,39.4,105.1,39.4z M105.1,33.6c-1.4,0-2.6,1.2-2.6,2.6s1.2,2.6,2.6,2.6s2.6-1.2,2.6-2.6S106.5,33.6,105.1,33.6
					z M105.1,37.5c-0.7,0-1.3-0.6-1.3-1.3s0.6-1.3,1.3-1.3c0.7,0,1.3,0.6,1.3,1.3S105.8,37.5,105.1,37.5z M105.1,35.5
					c-0.4,0-0.7,0.3-0.7,0.7s0.3,0.7,0.7,0.7c0.4,0,0.7-0.3,0.7-0.7S105.5,35.5,105.1,35.5z"/>
			</g>
		</g>
	</g>
	<g>
		<g>
			<g>
				<path class="st7" d="M108,41h-5.8v15.3h1.9v-5.7h1.9v5.8h1.9L108,41L108,41z M106.1,48.7h-1.9v-5.8h1.9V48.7z"/>
			</g>
		</g>
		<g>
			<g>
				<path class="st7" d="M108.3,56.6h-2.5v-5.8h-1.3v5.8h-2.6v-16h6.4V56.6z M106.4,56h1.3V41.3h-5.1V56h1.3v-5.8h2.5
					C106.4,50.2,106.4,56,106.4,56z M106.4,49h-2.5v-6.4h2.5V49z M104.5,48.3h1.3v-5.1h-1.3V48.3z"/>
			</g>
		</g>
	</g>
</g>
<g>
	<g>
		<path class="st0" d="M114.8,37.1c-1.6,0-2.9,1.3-2.9,2.9s1.3,2.9,2.9,2.9s2.9-1.3,2.9-2.9S116.4,37.1,114.8,37.1z M114.8,41
			c-0.5,0-1-0.4-1-1c0-0.5,0.4-1,1-1c0.5,0,1,0.4,1,1C115.7,40.6,115.3,41,114.8,41z"/>
		<path class="st0" d="M114.8,43.2c-1.8,0-3.2-1.4-3.2-3.2c0-1.8,1.4-3.2,3.2-3.2c1.8,0,3.2,1.4,3.2,3.2S116.5,43.2,114.8,43.2z
			 M114.8,37.5c-1.4,0-2.6,1.2-2.6,2.6s1.2,2.6,2.6,2.6s2.6-1.2,2.6-2.6C117.4,38.6,116.2,37.5,114.8,37.5z M114.8,41.3
			c-0.7,0-1.3-0.6-1.3-1.3c0-0.7,0.6-1.3,1.3-1.3l0,0c0.3,0,0.7,0.1,0.9,0.4c0.2,0.2,0.4,0.6,0.4,0.9
			C116,40.7,115.5,41.3,114.8,41.3z M114.8,39.4L114.8,39.4c-0.4,0-0.7,0.3-0.7,0.7c0,0.4,0.3,0.7,0.7,0.7s0.7-0.3,0.7-0.7
			c0-0.2-0.1-0.3-0.2-0.5C115.1,39.4,115,39.4,114.8,39.4z"/>
	</g>
	<g>
		<path class="st0" d="M111.9,44.8v11.5h1.9v-3.8h1.9v3.8h1.9V44.8H111.9z M115.7,50.6h-1.9v-3.8h1.9V50.6z"/>
		<path class="st0" d="M118,56.6h-2.5v-3.8h-1.3v3.8h-2.5V44.5h6.4L118,56.6L118,56.6z M116,56h1.3V45.1h-5.1V56h1.3v-3.8h2.5
			C116,52.2,116,56,116,56z M116,50.9h-2.5v-4.4h2.5V50.9z M114.1,50.3h1.3v-3.2h-1.3V50.3z"/>
	</g>
</g>
<path class="st3" d="M47.5,33L47.5,33L47.5,33c0.1,0,0.5,0,0.9,0v-1.6v-0.1v-1.7l0,0c0-0.5-0.4-0.9-0.9-0.9s-0.9,0.4-0.9,0.9l0,0
	v1.7v0.1V33C46.7,33.1,47,33.1,47.5,33L47.5,33z"/>
<path class="st3" d="M38.8,29.2L38.8,29.2v-1.4v-0.1v-1.4c0-0.4-0.3-0.7-0.8-0.7c-0.4,0-0.8,0.3-0.8,0.7v1.4v0.1v1.4
	c0,0,0.3,0,0.7,0C38,29.2,38.4,29.2,38.8,29.2z"/>
<path class="st3" d="M51.4,36.3c-1.2-0.4-2.5-0.7-3.9-0.7c-6.1,0-11.2,4.6-11.8,10.5h23.5c-0.3-3.6-2.3-6.7-5.2-8.6
	C53.3,37.1,52.4,36.7,51.4,36.3z"/>
<path class="st0" d="M24.5,50.1v2.6h2.6v-1.1v-8.3l0,0c0-6.4,5.3-11.6,11.8-11.6c1.4,0,2.7,0.2,3.9,0.7v-2.8
	c-0.6-0.2-1.3-0.3-1.9-0.4v-3.5c0-1.2-0.7-2.1-1.8-2.6v-1.3l0,0v-1.6h1.4v-2.3h-1.4v-1.2h-2.2v1.2h-1.4v2.3h1.4v1.6l0,0v1.3
	c-1.1,0.4-1.8,1.4-1.8,2.6v3.9c-6.1,1.7-10.6,7.2-10.6,13.8c0,0.3,0,0.6,0,0.9V50.1z M37.3,27.8L37.3,27.8v-1.5
	c0-0.4,0.3-0.7,0.8-0.7c0.4,0,0.8,0.3,0.8,0.7v1.4v0.1v1.4l0,0c-0.4,0-0.8,0-0.8,0c-0.4,0-0.7,0-0.7,0L37.3,27.8L37.3,27.8z"/>
<polygon class="st0" points="98.6,54 98.6,34.1 90.7,30.6 90.7,30.5 88,29.3 88,29.3 82.4,26.8 79.7,25.6 71.8,22 71.8,56.6 
	74.5,56.6 74.5,54 74.5,26.1 79.7,28.5 79.7,28.5 84,30.4 87.2,31.9 93.3,34.6 93.3,34.6 95.9,35.8 95.9,54 95.9,54 95.9,56.6 
	98.7,56.6 98.7,54 98.7,54 "/>
<path class="st0" d="M51.4,33.6c-0.2,0-0.3-0.1-0.5-0.1v-4.3c0-1.4-0.9-2.5-2.1-3v-1.6l0,0v-2h1.6v-2.4h-1.6v-1.4h-2.6v1.4h-1.6v2.4
	h1.5v3.5c-1.3,0.5-2.1,1.7-2.1,3.1v4.3c-6.3,1.5-11.1,7.1-11.1,13.9c0,0.3,0,0.6,0,0.9l0.3,5.8h-11H7.9H7.1l0,0v2.5h28.6v-1v-6.8
	h23.6v1.1v4v1.7v1H62v-9.3l0,0l0,0c0-5.5-3.2-10.3-7.9-12.7C54.1,34.6,52.5,33.8,51.4,33.6L51.4,33.6z M46.7,31.5L46.7,31.5v-1.7
	l0,0c0-0.5,0.4-0.9,0.9-0.9s0.9,0.4,0.9,0.9l0,0v1.7v0.1v1.6c-0.4,0-0.8,0-0.9,0l0,0l0,0l0,0c-0.5,0-0.8,0-0.8,0v-1.7H46.7z
	 M59.3,46.2H35.8c0.6-5.9,5.6-10.5,11.8-10.5c1.4,0,2.7,0.2,3.9,0.7c1,0.3,1.9,0.8,2.7,1.3C57,39.5,58.9,42.6,59.3,46.2z"/>
<path class="st0" d="M51.4,1.1V32v1.6c1,0.2,2.7,1.1,2.7,1.1v-1.6V3.7h25.6v18.6v3.3l2.7,1.2v-3.6V1.1H51.4z"/>
</svg>
