<?xml version="1.0" encoding="utf-8"?>
<!-- Generator: Adobe Illustrator 23.0.5, SVG Export Plug-In . SVG Version: 6.00 Build 0)  -->
<svg version="1.1" id="Capa_1" xmlns="http://www.w3.org/2000/svg" xmlns:xlink="http://www.w3.org/1999/xlink" x="0px" y="0px"
	 viewBox="0 0 266.2 58" style="enable-background:new 0 0 266.2 58;" xml:space="preserve">
<style type="text/css">
	.st0{fill:#FFFFFF;}
	.st1{fill:#FFFFFF;stroke:#0045BA;stroke-width:10;stroke-miterlimit:10;}
	.st2{fill:#FFFFFF;stroke:#7A4504;stroke-width:2;stroke-linecap:round;stroke-miterlimit:10;}
	.st3{fill:none;}
</style>
<g>
	<path class="st0" d="M142.1,21v10.1h4v1.2h-5.5V21H142.1z"/>
	<path class="st0" d="M151,23.3c1.7,0,2.8,0.8,3.4,1.8v-1.6h1.5v8.9h-1.5v-1.7c-0.5,1-1.7,1.8-3.4,1.8c-2.4,0-4.3-1.9-4.3-4.6
		C146.7,25.1,148.6,23.3,151,23.3z M151.3,24.6c-1.6,0-3,1.2-3,3.3s1.4,3.3,3,3.3s3.1-1.2,3.1-3.3C154.3,25.8,152.9,24.6,151.3,24.6
		z"/>
	<path class="st0" d="M162.9,23.3c2.4,0,4.3,1.8,4.3,4.6s-1.9,4.6-4.3,4.6c-1.6,0-2.8-0.8-3.4-1.8v1.6H158v-12h1.5v4.8
		C160.1,24.1,161.3,23.3,162.9,23.3z M162.5,24.6c-1.6,0-3.1,1.2-3.1,3.3s1.4,3.3,3.1,3.3c1.7,0,3.1-1.2,3.1-3.3
		C165.6,25.8,164.2,24.6,162.5,24.6z"/>
	<path class="st0" d="M172.6,32.5c-2.6,0-4.5-1.8-4.5-4.6s2-4.6,4.6-4.6s4.6,1.8,4.6,4.6C177.3,30.7,175.2,32.5,172.6,32.5z
		 M172.6,31.2c1.6,0,3.1-1.1,3.1-3.3s-1.5-3.3-3-3.3c-1.6,0-3,1.1-3,3.3S171.1,31.2,172.6,31.2z"/>
	<path class="st0" d="M180.3,32.4h-1.5v-8.9h1.5v1.4c0.5-1,1.5-1.6,2.9-1.6v1.5h-0.4c-1.4,0-2.5,0.6-2.5,2.7V32.4z"/>
	<path class="st0" d="M189.5,23.3c1.7,0,2.8,0.8,3.4,1.8v-1.6h1.5v8.9h-1.5v-1.7c-0.5,1-1.7,1.8-3.4,1.8c-2.4,0-4.3-1.9-4.3-4.6
		C185.2,25.1,187.1,23.3,189.5,23.3z M189.8,24.6c-1.6,0-3,1.2-3,3.3s1.4,3.3,3,3.3s3.1-1.2,3.1-3.3
		C192.8,25.8,191.4,24.6,189.8,24.6z"/>
	<path class="st0" d="M196.8,24.7h-1.2v-1.2h1.2v-2.2h1.5v2.2h2.4v1.2h-2.4v5.2c0,0.9,0.3,1.2,1.3,1.2h1.1v1.3h-1.3
		c-1.6,0-2.5-0.6-2.5-2.4v-5.3H196.8z"/>
	<path class="st0" d="M206,32.5c-2.6,0-4.5-1.8-4.5-4.6s2-4.6,4.6-4.6s4.6,1.8,4.6,4.6C210.6,30.7,208.6,32.5,206,32.5z M206,31.2
		c1.6,0,3.1-1.1,3.1-3.3s-1.5-3.3-3-3.3c-1.6,0-3,1.1-3,3.3C203,30.1,204.4,31.2,206,31.2z"/>
	<path class="st0" d="M213.7,32.4h-1.5v-8.9h1.5v1.4c0.5-1,1.5-1.6,2.9-1.6v1.5h-0.4c-1.4,0-2.5,0.6-2.5,2.7V32.4z"/>
	<path class="st0" d="M217.7,21c0-0.6,0.4-1,1-1c0.5,0,1,0.4,1,1s-0.4,1-1,1S217.7,21.6,217.7,21z M217.9,23.5h1.5v8.9h-1.5V23.5z"
		/>
	<path class="st0" d="M225.5,32.5c-2.6,0-4.5-1.8-4.5-4.6s2-4.6,4.6-4.6s4.6,1.8,4.6,4.6C230.1,30.7,228,32.5,225.5,32.5z
		 M225.5,31.2c1.6,0,3.1-1.1,3.1-3.3s-1.5-3.3-3-3.3c-1.6,0-3,1.1-3,3.3C222.5,30.1,223.9,31.2,225.5,31.2z"/>
</g>
<g>
	<path class="st0" d="M141.9,38.1h2.9v11.6h-2.9V38.1z"/>
	<path class="st0" d="M150.4,40.3c1.2,0,2.3,0.6,2.9,1.4v-4.3h2.9v12.2h-2.9v-1.3c-0.5,0.8-1.5,1.5-2.9,1.5c-2.3,0-4.1-1.8-4.1-4.8
		S148.1,40.3,150.4,40.3z M151.2,42.8c-1.1,0-2,0.8-2,2.3s1,2.3,2,2.3c1.1,0,2-0.8,2-2.3C153.3,43.6,152.3,42.8,151.2,42.8z"/>
	<path class="st0" d="M162.3,49.8c-2.7,0-4.7-1.8-4.7-4.7c0-2.9,1.9-4.7,4.7-4.7c2.7,0,4.6,1.8,4.6,4.6c0,0.3,0,0.5-0.1,0.8h-6.5
		c0.1,1.2,0.9,1.8,1.8,1.8c0.8,0,1.3-0.4,1.5-0.9h3C166.3,48.4,164.7,49.8,162.3,49.8z M160.5,44.2h3.6c0-1-0.8-1.6-1.8-1.6
		C161.4,42.6,160.6,43.1,160.5,44.2z"/>
	<path class="st0" d="M172,40.3c1.4,0,2.4,0.6,2.9,1.4v-1.3h2.9v9.2h-2.9v-1.3c-0.5,0.8-1.5,1.4-2.9,1.4c-2.3,0-4.1-1.8-4.1-4.8
		S169.7,40.3,172,40.3z M172.9,42.8c-1.1,0-2,0.8-2,2.3s1,2.3,2,2.3c1.1,0,2-0.8,2-2.3S174,42.8,172.9,42.8z"/>
	<path class="st0" d="M183.6,49.8c-2.5,0-4.2-1.4-4.3-3.2h2.8c0.1,0.6,0.7,1.1,1.4,1.1s1.1-0.3,1.1-0.7c0-1.5-5.1-0.4-5.1-3.8
		c0-1.6,1.4-2.9,3.8-2.9c2.4,0,3.7,1.3,3.9,3.1h-2.6c-0.1-0.6-0.6-1-1.4-1c-0.7,0-1,0.3-1,0.7c0,1.5,5,0.4,5.1,3.9
		C187.4,48.6,186,49.8,183.6,49.8z"/>
	<path class="st0" d="M192.7,38.1h2.9V45c0,1.4,0.7,2.2,2,2.2c1.4,0,2.1-0.8,2.1-2.2v-6.9h2.9V45c0,3.2-2.3,4.8-5,4.8
		s-4.8-1.6-4.8-4.8L192.7,38.1L192.7,38.1z"/>
	<path class="st0" d="M207.4,49.6h-2.9v-9.2h2.9v1.5c0.7-1,1.7-1.6,2.9-1.6v3h-0.8c-1.4,0-2.1,0.5-2.1,2L207.4,49.6L207.4,49.6z"/>
	<path class="st0" d="M217.4,40.3c2.3,0,4.1,1.8,4.1,4.7s-1.8,4.8-4.1,4.8c-1.4,0-2.4-0.6-2.9-1.4v1.3h-2.9V37.4h2.9v4.3
		C215,40.9,216.1,40.3,217.4,40.3z M216.5,42.8c-1.1,0-2,0.8-2,2.3s1,2.3,2,2.3c1.1,0,2.1-0.8,2.1-2.3
		C218.6,43.6,217.6,42.8,216.5,42.8z"/>
	<path class="st0" d="M226.6,40.3c1.4,0,2.4,0.6,2.9,1.4v-1.3h2.9v9.2h-2.9v-1.3c-0.5,0.8-1.5,1.4-2.9,1.4c-2.3,0-4.1-1.8-4.1-4.8
		S224.3,40.3,226.6,40.3z M227.4,42.8c-1.1,0-2,0.8-2,2.3s1,2.3,2,2.3c1.1,0,2-0.8,2-2.3S228.5,42.8,227.4,42.8z"/>
	<path class="st0" d="M240.8,44.6c0-1.3-0.7-1.9-1.8-1.9s-1.8,0.7-1.8,1.9v5h-2.9v-9.2h2.9v1.3c0.6-0.8,1.6-1.3,2.8-1.3
		c2.2,0,3.6,1.5,3.6,3.9v5.4h-2.8V44.6z"/>
	<path class="st0" d="M249.2,40.3c1.4,0,2.4,0.6,2.9,1.4v-1.3h2.9v9.2h-2.9v-1.3c-0.5,0.8-1.5,1.4-2.9,1.4c-2.3,0-4.1-1.8-4.1-4.8
		S246.9,40.3,249.2,40.3z M250,42.8c-1.1,0-2,0.8-2,2.3s1,2.3,2,2.3c1.1,0,2-0.8,2-2.3C252.1,43.6,251.1,42.8,250,42.8z"/>
	<path class="st0" d="M260.8,49.8c-2.5,0-4.2-1.4-4.3-3.2h2.8c0.1,0.6,0.7,1.1,1.4,1.1c0.7,0,1.1-0.3,1.1-0.7c0-1.5-5.1-0.4-5.1-3.8
		c0-1.6,1.4-2.9,3.8-2.9s3.7,1.3,3.9,3.1h-2.5c-0.1-0.6-0.6-1-1.4-1c-0.7,0-1,0.3-1,0.7c0,1.5,5,0.4,5.1,3.9
		C264.6,48.6,263.1,49.8,260.8,49.8z"/>
</g>
<path class="st1" d="M8.5,29.9"/>
<g>
	<g>
		<g>
			<line class="st0" x1="27.2" y1="51.8" x2="27.2" y2="52.9"/>
		</g>
	</g>
</g>
<g>
	<g>
		<g>
			<rect x="68.8" y="14.6" class="st0" width="5.1" height="5"/>
		</g>
	</g>
</g>
<g>
	<g>
		<g>
			<rect x="77.6" y="36.3" class="st0" width="5.1" height="5"/>
		</g>
	</g>
</g>
<g>
	<g>
		<g>
			<rect x="86.4" y="42.8" class="st0" width="5.1" height="5"/>
		</g>
	</g>
</g>
<g>
	<g>
		<g>
			<g>
				<path class="st0" d="M79.7,28.6l-5.2-2.4L79.7,28.6z"/>
			</g>
		</g>
	</g>
	<g>
		<g>
			<g>
				<polygon class="st0" points="93.3,34.7 87.2,32 84,30.5 				"/>
			</g>
		</g>
	</g>
</g>
<rect x="58.6" y="8.9" class="st0" width="5.1" height="5"/>
<rect x="58.9" y="21.6" class="st0" width="5.1" height="5"/>
<g>
	<g>
		<g>
			<path class="st2" d="M21,54.8"/>
		</g>
	</g>
</g>
<g>
	<ellipse class="st0" cx="97.4" cy="26" rx="2.9" ry="2.9"/>
	<path class="st0" d="M107.2,15.7c-1.8-1.7-3.8-2.8-5.8-3.5c-1.7-0.5-3.4-0.7-5.2-0.5c-2.6,0.3-5.1,1.3-7.3,2.9
		c-0.5,0.4-1,0.7-1.4,1.2C87.2,16.1,87,16.6,87,17c0,0.5,0.2,0.9,0.5,1.1c0.7,0.6,1.7,0.6,2.4,0l0,0C90,18,90,18,90.1,17.9
		c0.1-0.1,0.2-0.2,0.3-0.2l0.3-0.3c0.1-0.1,0.2-0.1,0.2-0.2c0.2-0.1,0.4-0.2,0.5-0.4c0.4-0.3,0.9-0.5,1.3-0.8
		c0.2-0.1,0.5-0.2,0.7-0.3l0.2-0.1c0.1-0.1,0.3-0.1,0.4-0.2c0.6-0.2,1.2-0.4,1.9-0.5h0.2l0,0c0.2,0,0.3,0,0.5,0c0.3,0,0.7,0,1,0
		c0.2,0,0.4,0,0.5,0s0.2,0,0.2,0h0.1c0.4,0.1,0.7,0.1,1.1,0.2c0.4,0.1,0.9,0.3,1.3,0.4h0.1l0,0l0,0l0,0c0.1,0.1,0.2,0.1,0.3,0.2
		c0.2,0.1,0.4,0.2,0.6,0.3c0.5,0.3,0.9,0.6,1.4,0.9l0.2,0.1l0.1,0.1c0.1,0,0.1,0.1,0.1,0.1l0.1,0.1c0.2,0.2,0.5,0.4,0.7,0.6
		c0.3,0.3,0.8,0.5,1.2,0.5c0.4,0,0.8-0.1,1.2-0.5c0.3-0.3,0.5-0.8,0.5-1.3C107.7,16.3,107.5,15.9,107.2,15.7z"/>
	<path class="st0" d="M96.4,17.3c-1.8,0.2-3.4,0.9-4.9,2.1c-0.2,0.2-0.5,0.4-0.7,0.7c-0.6,0.6-0.7,1.7,0,2.4
		c0.3,0.3,0.8,0.5,1.3,0.5c0.4,0,0.8-0.2,1.1-0.5c0.1-0.2,0.3-0.3,0.5-0.4c0.1-0.1,0.1-0.1,0.2-0.2l0.1-0.1c0.2-0.2,0.5-0.3,0.7-0.5
		c0.1-0.1,0.3-0.2,0.4-0.2l0.3-0.1c0.3-0.1,0.7-0.2,1.1-0.3l0,0l0,0c0,0,0.1,0,0.2,0c0.2,0,0.4,0,0.7,0c0.1,0,0.2,0,0.3,0
		c0,0,0.1,0,0.2,0h0.3c0.1,0,0.2,0,0.3,0.1c0.1,0,0.3,0.1,0.4,0.1s0.2,0.1,0.3,0.1h0.1c0.1,0,0.1,0.1,0.2,0.1
		c0.1,0.1,0.2,0.1,0.4,0.2c0.3,0.2,0.6,0.4,0.9,0.6c0,0,0.1,0,0.1,0.1l0.1,0.1h0.1c0.2,0.1,0.3,0.3,0.5,0.4c0.3,0.3,0.8,0.5,1.2,0.5
		c0.4,0,0.9-0.2,1.2-0.5c0.3-0.3,0.5-0.8,0.5-1.3c0-0.4-0.2-0.8-0.5-1.1C101.5,18,98.9,17,96.4,17.3z"/>
</g>
<path class="st0" d="M15.1,54.4V43.2c0.6,0.3,1.2,0.5,1.8,0.6c0.4,0.1,0.7,0.1,1.1,0.1l0,0c3.2,0,6-2.3,6.5-5.5
	c0.2-1.2,0.1-2.4-0.4-3.4c1.1-0.9,1.9-2.2,2.1-3.6c0.3-1.6-0.1-3.2-1.1-4.5s-2.4-2.2-4-2.4c-0.2,0-0.3,0-0.5-0.1
	c0-3.5-2.5-6.5-6.1-7.1c-0.4-0.1-0.8-0.1-1.2-0.1c-3.6,0-6.5,2.5-7.1,6c0,0.3-0.1,0.6-0.1,0.8c-1.5,0.8-2.6,2.3-2.9,4
	c-0.1,0.5-0.1,1.1,0,1.6c-1.3,0.9-2.2,2.2-2.5,3.8c-0.4,2.5,1,5,3.2,6c0.2,2.5,2.1,4.7,4.8,5.1c0.3,0,0.6,0.1,0.9,0.1
	c1,0,1.9-0.3,2.7-0.7v10.6 M9.7,41.9c-0.2,0-0.3,0-0.5,0c-1.6-0.3-2.7-1.7-2.6-3.3c0.1-0.6-0.4-1.2-1-1.4c-1.5-0.4-2.5-1.9-2.3-3.4
	c0.2-1.1,0.9-1.9,1.9-2.3c0.7-0.3,1-1,0.8-1.6c-0.2-0.5-0.2-1-0.1-1.5c0.2-1.1,1-2,2-2.4c0.6-0.2,0.9-0.7,0.9-1.3c0-0.4,0-0.8,0-1.1
	c0.4-2.2,2.3-3.8,4.5-3.8c0.2,0,0.5,0,0.7,0.1c2.5,0.4,4.2,2.7,3.8,5.2c0,0.1-0.1,0.3-0.1,0.4c-0.1,0.4,0,0.9,0.3,1.2
	s0.8,0.5,1.2,0.4c0.4-0.1,0.9-0.1,1.3,0c1.9,0.3,3.2,2.1,2.9,4c-0.2,1.1-0.8,2-1.8,2.5c-0.3,0.2-0.6,0.5-0.7,0.8
	c-0.1,0.4,0,0.7,0.2,1c0.5,0.8,0.7,1.8,0.6,2.7c-0.3,1.9-2,3.3-3.9,3.3c-0.2,0-0.4,0-0.6-0.1c-1-0.2-1.9-0.7-2.5-1.5
	c-0.3-0.4-0.8-0.6-1.2-0.5c-0.5,0.1-0.9,0.4-1,0.8C12.1,41.2,10.9,41.9,9.7,41.9z"/>
<g>
	<path class="st0" d="M124.7,39.5c1.8,0,3.2-1.5,3.2-3.2c0-1.8-1.4-3.2-3.2-3.2c-1.8,0-3.2,1.4-3.2,3.2S122.9,39.5,124.7,39.5z
		 M124.7,37c-0.4,0-0.7-0.3-0.7-0.7c0-0.4,0.3-0.7,0.7-0.7c0.4,0,0.7,0.3,0.7,0.7C125.4,36.7,125.1,37,124.7,37z"/>
	<path class="st0" d="M128,45.8v-5.1h-6.4v16h2.5v-2.9h1.3v2.9h2.5h0.1v-2.9h2L128,45.8z M124,43.3h1.3v2.8l1.3,5.2H124V43.3z"/>
	<path class="st0" d="M105.1,33.1c-1.8,0-3.2,1.4-3.2,3.2s1.4,3.2,3.2,3.2s3.2-1.5,3.2-3.2C108.3,34.5,106.9,33.1,105.1,33.1z
		 M105.1,35.6c0.4,0,0.7,0.3,0.7,0.7c0,0.4-0.3,0.7-0.7,0.7c-0.4,0-0.7-0.3-0.7-0.7C104.4,35.9,104.7,35.6,105.1,35.6z"/>
	<path class="st0" d="M101.9,56.7h2.6v-5.8h1.3v5.8h2.5v-16h-6.4V56.7z M105.8,43.3v5.1h-1.3v-5.1H105.8z"/>
	<path class="st0" d="M114.8,43.3c1.7,0,3.2-1.4,3.2-3.2s-1.4-3.2-3.2-3.2s-3.2,1.4-3.2,3.2S113,43.3,114.8,43.3z M114.8,40.9
		c-0.4,0-0.7-0.3-0.7-0.7c0-0.4,0.3-0.7,0.7-0.7c0.2,0,0.3,0,0.5,0.2c0.1,0.2,0.2,0.3,0.2,0.5C115.5,40.6,115.2,40.9,114.8,40.9z"/>
	<path class="st0" d="M111.7,56.7h2.5v-3.8h1.3v3.8h2.5h0.1V44.6h-6.4V56.7z M115.4,47.2v3.2h-1.3v-3.2H115.4z"/>
</g>
<path class="st0" d="M40.9,29.3v-3.5c0-1.2-0.7-2.1-1.8-2.6v-1.3v-1.6h1.4V18h-1.4v-1.2h-2.2V18h-1.4v2.3h1.4v1.6v1.3
	c-1.1,0.4-1.8,1.4-1.8,2.6v3.9c-6.1,1.7-10.6,7.2-10.6,13.8c0,0.3,0,0.6,0,0.9v5.8v2.6h2.6v-1.1v-8.3c0-6.4,5.3-11.6,11.8-11.6
	c1.4,0,2.7,0.2,3.9,0.7v-2.8C42.2,29.5,41.5,29.4,40.9,29.3z M38.8,27.8v0.1v1.4c-0.4,0-0.8,0-0.9,0c-0.4,0-0.7,0-0.7,0v-1.4v-0.1
	v-1.4c0-0.4,0.4-0.7,0.8-0.7c0.5,0,0.8,0.3,0.8,0.7V27.8z"/>
<polygon class="st0" points="98.6,54.1 98.6,34.2 90.7,30.7 90.7,30.6 88,29.4 88,29.4 82.4,26.9 79.7,25.7 71.8,22.1 71.8,56.7 
	74.5,56.7 74.5,54.1 74.5,26.2 79.7,28.6 79.7,28.6 84,30.5 87.2,32 93.3,34.7 93.3,34.7 95.9,35.9 95.9,54.1 95.9,54.1 95.9,56.7 
	98.7,56.7 98.7,54.1 98.7,54.1 "/>
<g>
	<path class="st3" d="M54.2,37.8c-0.8-0.5-1.7-1-2.7-1.3c-1.2-0.5-2.5-0.7-3.9-0.7c-6.2,0-11.2,4.6-11.8,10.5h23.5
		C58.9,42.7,57,39.6,54.2,37.8z"/>
	<path class="st0" d="M54.1,34.7c0,0-1.6-0.8-2.7-1c-0.2,0-0.3-0.1-0.5-0.1v-4.3c0-1.4-0.9-2.5-2.1-3v-1.6v-2h1.6v-2.4h-1.6v-1.4
		h-2.6v1.4h-1.6v2.4h1.5v3.5c-1.3,0.5-2.1,1.7-2.1,3.1v4.3c-6.3,1.5-11.1,7.1-11.1,13.9c0,0.3,0,0.6,0,0.9l0.3,5.8h-11H7.9H7.1v2.5
		h28.6v-1v-6.8h23.6V50v4v1.7v1H62v-9.3C62,41.9,58.8,37.1,54.1,34.7z M46.6,31.5L46.6,31.5v-1.8c0-0.5,0.4-0.9,0.9-0.9
		s0.9,0.4,0.9,0.9v1.7v0.1v1.6c-0.4,0-0.8,0-0.9,0c-0.5,0.1-0.8,0.1-0.9,0V31.5z M35.8,46.3c0.6-5.9,5.6-10.5,11.8-10.5
		c1.4,0,2.7,0.2,3.9,0.7c1,0.3,1.9,0.8,2.7,1.3c2.8,1.8,4.7,4.9,5.1,8.5H35.8z"/>
</g>
<path class="st0" d="M51.4,1.2v30.9v1.6c1,0.2,2.7,1.1,2.7,1.1v-1.6V3.8h25.6v18.6v3.3l2.7,1.2v-3.6V1.2H51.4z"/>
</svg>
