<?xml version="1.0" encoding="utf-8"?>
<!-- Generator: Adobe Illustrator 23.0.5, SVG Export Plug-In . SVG Version: 6.00 Build 0)  -->
<svg version="1.1" id="Capa_1" xmlns="http://www.w3.org/2000/svg" xmlns:xlink="http://www.w3.org/1999/xlink" x="0px" y="0px"
	 viewBox="0 0 45 45" style="enable-background:new 0 0 45 45;" xml:space="preserve">
<style type="text/css">
	.st0{fill:#0B42AA;}
	.st1{fill-rule:evenodd;clip-rule:evenodd;fill:#FFFFFF;}
</style>
<circle class="st0" cx="22.5" cy="22.3" r="22.3"/>
<path class="st1" d="M25.8,15.3c0.7,0,1.3,0,2,0c0.1,0,0.2,0,0.3,0v-3.4c-0.3,0-0.7-0.1-1.1-0.1c-0.7,0-1.3-0.1-2,0
	c-1,0-2,0.3-2.8,0.9c-1,0.7-1.5,1.7-1.7,2.8c-0.1,0.5-0.1,1-0.1,1.5c0,0.8,0,1.5,0,2.3v0.3H17v3.8h3.2v9.5h4v-9.5h3.2
	c0.2-1.3,0.3-2.5,0.5-3.8c-0.3,0-0.5,0-0.7,0c-0.9,0-3,0-3,0s0-1.9,0-2.7C24.2,15.7,24.9,15.3,25.8,15.3z"/>
</svg>
