<?xml version="1.0" encoding="utf-8"?>
<!-- Generator: Adobe Illustrator 23.0.5, SVG Export Plug-In . SVG Version: 6.00 Build 0)  -->
<svg version="1.1" id="Capa_1" xmlns="http://www.w3.org/2000/svg" xmlns:xlink="http://www.w3.org/1999/xlink" x="0px" y="0px"
	 viewBox="0 0 45 45" style="enable-background:new 0 0 45 45;" xml:space="preserve">
<style type="text/css">
	.st0{fill:#08A1D6;}
	.st1{fill-rule:evenodd;clip-rule:evenodd;fill:#FFFFFF;}
</style>
<circle class="st0" cx="22.6" cy="22.5" r="22.5"/>
<path class="st1" d="M19.2,28.8c-2.5-0.1-4-1.9-4.5-3.3c0.7,0.1,1.4,0.1,2.1-0.1c0,0,0,0,0.1,0c-1.3-0.3-2.4-1-3.1-2.2
	c-0.5-0.8-0.7-1.6-0.7-2.5c0.7,0.4,1.4,0.6,2.1,0.6c-1-0.7-1.7-1.7-2-2.9c-0.3-1.2-0.1-2.4,0.5-3.5c2.6,3.1,5.9,4.7,9.9,5
	c0-0.2-0.1-0.4-0.1-0.5c-0.1-1.1,0.1-2.2,0.7-3.1C25,15,26,14.2,27.4,14c1.6-0.3,3,0.2,4.2,1.3c0.1,0.1,0.1,0.1,0.3,0.1
	c1-0.2,1.9-0.6,2.8-1.1c0,0,0,0,0.1,0c0,0,0,0,0,0c-0.4,1.1-1.1,2-2,2.6c0.9-0.1,1.8-0.3,2.7-0.7c0,0,0,0,0,0
	c-0.2,0.2-0.4,0.5-0.5,0.7c-0.5,0.6-1.1,1.2-1.7,1.7c-0.1,0-0.1,0.1-0.1,0.2c0,0.7,0,1.4-0.1,2.1c-0.2,1.5-0.6,2.9-1.2,4.3
	c-0.7,1.4-1.5,2.7-2.6,3.8c-1.8,1.9-4,3.1-6.6,3.7c-0.9,0.2-1.8,0.3-2.7,0.3c-2.8,0.1-5.3-0.6-7.7-2.1c0,0-0.1,0-0.1-0.1
	c1.7,0.2,3.3,0,4.8-0.7C17.7,29.8,18.5,29.3,19.2,28.8z"/>
</svg>
